<?xml version="1.0" encoding="UTF-8" standalone="no"?>
<svg
   xmlns:namespace="http://www.highcharts.com/svg/namespace"
   xmlns:dc="http://purl.org/dc/elements/1.1/"
   xmlns:cc="http://creativecommons.org/ns#"
   xmlns:rdf="http://www.w3.org/1999/02/22-rdf-syntax-ns#"
   xmlns:svg="http://www.w3.org/2000/svg"
   xmlns="http://www.w3.org/2000/svg"
   xmlns:sodipodi="http://sodipodi.sourceforge.net/DTD/sodipodi-0.dtd"
   xmlns:inkscape="http://www.inkscape.org/namespaces/inkscape"
   version="1.1"
   height="700pt"
   width="700pt"
   id="svg3694"
   inkscape:version="0.48.4 r9939"
   sodipodi:docname="ng-nw.svg">
  <metadata
     id="metadata3745">
    <rdf:RDF>
      <cc:Work
         rdf:about="">
        <dc:format>image/svg+xml</dc:format>
        <dc:type
           rdf:resource="http://purl.org/dc/dcmitype/StillImage" />
      </cc:Work>
    </rdf:RDF>
  </metadata>
  <defs
     id="defs3743" />
  <sodipodi:namedview
     pagecolor="#ffffff"
     bordercolor="#666666"
     borderopacity="1"
     objecttolerance="10"
     gridtolerance="10"
     guidetolerance="10"
     inkscape:pageopacity="0"
     inkscape:pageshadow="2"
     inkscape:window-width="1297"
     inkscape:window-height="744"
     id="namedview3741"
     showgrid="false"
     inkscape:zoom="1.0788571"
     inkscape:cx="363.34746"
     inkscape:cy="585.80508"
     inkscape:window-x="69"
     inkscape:window-y="24"
     inkscape:window-maximized="1"
     inkscape:current-layer="admin1" />
  <desc
     id="desc3696">
Map version: 1.1.2
Copyright (c) 2015 Highsoft AS, Based on data from Natural Earth
</desc>
  <title
     id="title3698">Nigeria</title>
  <g
     id="admin1">
    <g
       id="NG">
      <namespace:desc>
        <namespace:name>Nigeria</namespace:name>
        <namespace:labelrank>2</namespace:labelrank>
        <namespace:country-abbrev>Nigeria</namespace:country-abbrev>
        <namespace:subregion>Western Africa</namespace:subregion>
        <namespace:region-wb>Sub-Saharan Africa</namespace:region-wb>
        <namespace:iso-a3>NGA</namespace:iso-a3>
        <namespace:iso-a2>NG</namespace:iso-a2>
        <namespace:woe-id>23424908</namespace:woe-id>
        <namespace:continent>Africa</namespace:continent>
        <namespace:hc-key>ng</namespace:hc-key>
        <namespace:hc-a2>NI</namespace:hc-a2>
      </namespace:desc>
    </g>
    <path
       fill="#CEE3F5"
       stroke="#6E6E6E"
       stroke-width="0.4"
       id="Katsina"
       d="M259.4,52.5 L267.2,45.3 L274.5,46.2 L278.4,45.7 L299.4,33.1 L303.4,32.1 L318.0,34.2 L327.7,40.0 L336.4,48.0 L344.2,48.6 L352.7,56.9 L369.9,61.6 L366.2,67.1 L360.9,70.6 L355.5,71.1 L348.0,69.2 L344.4,62.4 L327.5,62.4 L321.4,63.4 L320.2,72.6 L323.2,74.5 L327.8,74.6 L329.8,77.7 L324.2,78.6 L320.9,86.7 L318.8,88.7 L308.7,92.5 L304.2,95.6 L303.7,116.2 L304.8,124.1 L307.2,131.8 L298.6,134.7 L296.8,136.8 L295.4,142.5 L296.3,145.5 L300.3,148.9 L298.3,151.9 L293.6,153.8 L286.6,149.1 L282.3,148.3 L278.7,150.4 L277.4,154.4 L269.3,154.4 L269.3,160.8 L266.0,163.3 L261.1,159.9 L254.8,157.5 L257.2,153.4 L255.5,150.0 L248.4,148.3 L250.1,138.9 L248.1,135.3 L250.3,124.7 L253.7,123.2 L259.2,124.0 L264.0,120.3 L265.4,117.4 L268.9,117.2 L268.3,113.8 L262.0,108.8 L264.6,102.0 L262.6,92.5 L261.0,89.4 L260.1,82.9 L258.4,58.6 Z">
      <namespace:desc>
        <namespace:labelrank>7</namespace:labelrank>
        <namespace:hasc>NG.KT</namespace:hasc>
        <namespace:alt-name>NULL</namespace:alt-name>
        <namespace:woe-id>2346352</namespace:woe-id>
        <namespace:subregion>NULL</namespace:subregion>
        <namespace:fips>NI24</namespace:fips>
        <namespace:postal-code>KT</namespace:postal-code>
        <namespace:name>Katsina</namespace:name>
        <namespace:country>Nigeria</namespace:country>
        <namespace:type-en>State</namespace:type-en>
        <namespace:region>North-West</namespace:region>
        <namespace:longitude>7.58609</namespace:longitude>
        <namespace:woe-name>Katsina</namespace:woe-name>
        <namespace:latitude>12.5056</namespace:latitude>
        <namespace:woe-label>Katsina, NG, Nigeria</namespace:woe-label>
        <namespace:type>State</namespace:type>
        <namespace:hc-middle-x>0.38</namespace:hc-middle-x>
        <namespace:hc-middle-y>0.34</namespace:hc-middle-y>
        <namespace:hc-key>ng-kt</namespace:hc-key>
        <namespace:hc-a2>KT</namespace:hc-a2>
      </namespace:desc>
    </path>
    <path
       fill="#CEE3F5"
       stroke="#6E6E6E"
       stroke-width="0.4"
       id="Sokota"
       d="M89.7,37.8 L90.3,22.4 L97.4,21.2 L106.6,12.7 L112.5,9.7 L132.7,5.3 L136.6,7.8 L156.7,6.9 L162.6,0.9 L172.9,0.0 L205.4,13.3 L211.7,11.9 L219.7,15.0 L227.7,22.8 L237.0,33.1 L241.6,41.8 L234.2,46.6 L228.6,46.6 L223.0,45.1 L221.2,43.1 L215.1,42.3 L213.2,48.5 L205.3,48.4 L201.0,52.1 L201.9,62.2 L200.2,65.3 L195.9,66.8 L182.9,67.9 L179.9,70.2 L174.7,77.4 L171.9,79.3 L171.5,83.1 L172.8,92.1 L169.9,95.1 L152.2,95.7 L143.7,94.1 L141.4,101.2 L140.7,128.8 L132.0,128.0 L120.9,132.8 L116.3,136.9 L111.9,133.8 L112.4,128.2 L115.1,122.7 L117.2,113.5 L117.1,90.9 L119.2,87.2 L123.4,86.3 L127.3,87.6 L130.0,86.3 L130.2,81.9 L128.6,72.4 L130.1,63.7 L126.9,56.7 L129.9,44.6 L127.4,43.8 L125.4,46.7 L121.4,47.6 L117.4,45.2 L109.4,42.3 L102.4,37.0 L98.3,38.4 Z">
      <namespace:desc>
        <namespace:labelrank>7</namespace:labelrank>
        <namespace:hasc>NG.SO</namespace:hasc>
        <namespace:alt-name>NULL</namespace:alt-name>
        <namespace:woe-id>2346361</namespace:woe-id>
        <namespace:subregion>NULL</namespace:subregion>
        <namespace:fips>NI51</namespace:fips>
        <namespace:postal-code>SO</namespace:postal-code>
        <namespace:name>Sokoto</namespace:name>
        <namespace:country>Nigeria</namespace:country>
        <namespace:type-en>State</namespace:type-en>
        <namespace:region>North-West</namespace:region>
        <namespace:longitude>5.4366</namespace:longitude>
        <namespace:woe-name>Sokoto</namespace:woe-name>
        <namespace:latitude>13.0603</namespace:latitude>
        <namespace:woe-label>Sokoto, NG, Nigeria</namespace:woe-label>
        <namespace:type>State</namespace:type>
        <namespace:hc-middle-x>0.48</namespace:hc-middle-x>
        <namespace:hc-middle-y>0.27</namespace:hc-middle-y>
        <namespace:hc-key>ng-so</namespace:hc-key>
        <namespace:hc-a2>SO</namespace:hc-a2>
      </namespace:desc>
    </path>
    <path
       fill="#CEE3F5"
       stroke="#6E6E6E"
       stroke-width="0.4"
       id="Zamfara"
       d="M140.7,128.8 L141.4,101.2 L143.7,94.1 L152.2,95.7 L169.9,95.1 L172.8,92.1 L171.5,83.1 L171.9,79.3 L174.7,77.4 L179.9,70.2 L182.9,67.9 L195.9,66.8 L200.2,65.3 L201.9,62.2 L201.0,52.1 L205.3,48.4 L213.2,48.5 L215.1,42.3 L221.2,43.1 L223.0,45.1 L228.6,46.6 L234.2,46.6 L241.6,41.8 L246.4,48.4 L250.4,51.7 L259.4,52.5 L258.4,58.6 L260.1,82.9 L261.0,89.4 L262.6,92.5 L264.6,102.0 L262.0,108.8 L268.3,113.8 L268.9,117.2 L265.4,117.4 L264.0,120.3 L259.2,124.0 L253.7,123.2 L250.3,124.7 L248.1,135.3 L250.1,138.9 L248.4,148.3 L242.1,153.7 L239.2,162.2 L235.9,165.9 L224.6,169.1 L216.9,167.3 L210.2,173.7 L209.9,176.0 L206.3,177.6 L205.5,173.7 L198.6,162.9 L198.2,153.9 L193.8,146.8 L190.4,144.1 L192.2,135.7 L189.5,133.0 L183.1,131.5 L172.3,132.7 L163.9,129.7 L161.7,126.8 L154.5,126.6 L153.0,129.0 L147.5,130.4 Z">
      <namespace:desc>
        <namespace:labelrank>3</namespace:labelrank>
        <namespace:hasc>NG.ZA</namespace:hasc>
        <namespace:alt-name>NULL</namespace:alt-name>
        <namespace:woe-id>20070150</namespace:woe-id>
        <namespace:subregion>NULL</namespace:subregion>
        <namespace:fips>NI57</namespace:fips>
        <namespace:postal-code>ZA</namespace:postal-code>
        <namespace:name>Zamfara</namespace:name>
        <namespace:country>Nigeria</namespace:country>
        <namespace:type-en>State</namespace:type-en>
        <namespace:region>North-West</namespace:region>
        <namespace:longitude>6.12834</namespace:longitude>
        <namespace:woe-name>Zamfara</namespace:woe-name>
        <namespace:latitude>12.0084</namespace:latitude>
        <namespace:woe-label>Zamfara, NG, Nigeria</namespace:woe-label>
        <namespace:type>State</namespace:type>
        <namespace:hc-middle-x>0.58</namespace:hc-middle-x>
        <namespace:hc-middle-y>0.45</namespace:hc-middle-y>
        <namespace:hc-key>ng-za</namespace:hc-key>
        <namespace:hc-a2>ZA</namespace:hc-a2>
      </namespace:desc>
    </path>
    <path
       fill="#CEE3F5"
       stroke="#6E6E6E"
       stroke-width="0.4"
       id="Kebbi"
       d="M140.7,128.8 L147.5,130.4 L153.0,129.0 L154.5,126.6 L161.7,126.8 L163.9,129.7 L172.3,132.7 L183.1,131.5 L189.5,133.0 L192.2,135.7 L190.4,144.1 L193.8,146.8 L198.2,153.9 L198.6,162.9 L194.8,161.9 L190.3,166.3 L186.3,166.9 L176.2,171.1 L166.5,171.7 L164.2,169.1 L164.6,162.2 L159.8,155.3 L159.0,150.9 L155.6,148.8 L151.4,148.6 L134.2,151.9 L126.1,155.4 L125.1,159.1 L133.0,163.7 L139.2,164.9 L142.0,166.9 L143.3,173.4 L140.5,176.9 L144.1,183.8 L134.4,188.0 L128.5,188.0 L127.5,191.9 L127.7,200.4 L132.2,208.0 L130.7,211.9 L127.0,213.7 L118.2,215.7 L116.7,221.7 L111.3,220.2 L112.7,211.5 L110.0,209.0 L109.3,200.3 L111.6,196.6 L118.4,192.9 L120.4,189.5 L122.6,174.3 L118.8,173.1 L111.8,168.4 L106.0,166.8 L99.9,167.6 L80.9,167.4 L69.3,161.0 L63.5,160.7 L61.0,159.3 L50.8,144.5 L49.9,141.5 L52.3,134.8 L56.4,128.0 L61.9,123.0 L58.7,117.7 L58.4,114.3 L61.3,109.6 L59.7,103.2 L61.5,92.9 L61.5,77.6 L74.3,68.3 L78.1,64.8 L87.6,50.4 L89.7,37.8 L98.3,38.4 L102.4,37.0 L109.4,42.3 L117.4,45.2 L121.4,47.6 L125.4,46.7 L127.4,43.8 L129.9,44.6 L126.9,56.7 L130.1,63.7 L128.6,72.4 L130.2,81.9 L130.0,86.3 L127.3,87.6 L123.4,86.3 L119.2,87.2 L117.1,90.9 L117.2,113.5 L115.1,122.7 L112.4,128.2 L111.9,133.8 L116.3,136.9 L120.9,132.8 L132.0,128.0 Z">
      <namespace:desc>
        <namespace:labelrank>3</namespace:labelrank>
        <namespace:hasc>NG.KE</namespace:hasc>
        <namespace:alt-name>NULL</namespace:alt-name>
        <namespace:woe-id>2346368</namespace:woe-id>
        <namespace:subregion>NULL</namespace:subregion>
        <namespace:fips>NI40</namespace:fips>
        <namespace:postal-code>KE</namespace:postal-code>
        <namespace:name>Kebbi</namespace:name>
        <namespace:country>Nigeria</namespace:country>
        <namespace:type-en>State</namespace:type-en>
        <namespace:region>North-West</namespace:region>
        <namespace:longitude>4.06548</namespace:longitude>
        <namespace:woe-name>Kebbi</namespace:woe-name>
        <namespace:latitude>11.7712</namespace:latitude>
        <namespace:woe-label>Kebbi, NG, Nigeria</namespace:woe-label>
        <namespace:type>State</namespace:type>
        <namespace:hc-middle-x>0.26</namespace:hc-middle-x>
        <namespace:hc-middle-y>0.35</namespace:hc-middle-y>
        <namespace:hc-key>ng-ke</namespace:hc-key>
        <namespace:hc-a2>KE</namespace:hc-a2>
      </namespace:desc>
    </path>
    <path
       fill="#CEE3F5"
       stroke="#6E6E6E"
       stroke-width="0.4"
       id="Kaduna"
       d="M356.4,196.6 L353.8,204.0 L358.9,209.1 L358.1,212.8 L351.6,218.9 L350.6,223.3 L352.1,227.8 L349.8,235.5 L350.0,244.2 L345.8,250.8 L345.8,259.2 L353.1,268.7 L351.7,275.6 L346.1,284.9 L341.4,287.7 L335.6,280.8 L328.5,278.7 L323.6,284.9 L318.9,287.4 L316.8,274.8 L312.6,271.9 L310.2,267.3 L306.6,267.9 L302.4,272.9 L291.2,269.4 L286.2,266.9 L283.1,270.4 L278.4,269.5 L272.8,270.1 L270.0,270.2 L270.4,266.6 L267.5,263.1 L274.5,253.1 L272.0,247.2 L267.5,244.0 L272.1,241.6 L271.1,230.1 L268.3,228.1 L255.4,227.7 L251.2,225.9 L248.6,222.5 L257.3,215.0 L258.9,211.1 L253.0,208.4 L252.4,200.3 L249.2,197.6 L246.3,197.9 L245.4,192.0 L239.6,191.9 L238.6,195.1 L234.1,195.2 L229.9,197.1 L225.8,193.9 L221.6,194.7 L214.6,200.0 L208.8,206.9 L206.8,207.1 L202.2,200.0 L204.2,190.3 L203.5,180.9 L206.3,177.6 L209.9,176.0 L210.2,173.7 L216.9,167.3 L224.6,169.1 L235.9,165.9 L239.2,162.2 L242.1,153.7 L248.4,148.3 L255.5,150.0 L257.2,153.4 L254.8,157.5 L261.1,159.9 L266.0,163.3 L269.3,160.8 L269.3,154.4 L277.4,154.4 L278.7,150.4 L282.3,148.3 L286.6,149.1 L293.6,153.8 L298.3,151.9 L300.3,148.9 L304.3,148.6 L311.1,143.5 L319.3,140.9 L321.4,141.9 L319.9,148.1 L323.0,151.3 L327.1,152.8 L330.4,156.2 L338.8,158.9 L344.8,165.2 L345.9,173.4 L344.8,177.9 L345.7,185.0 L341.2,189.4 L344.4,192.1 L349.0,192.7 L351.6,195.7 Z">
      <namespace:desc>
        <namespace:labelrank>7</namespace:labelrank>
        <namespace:hasc>NG.KD</namespace:hasc>
        <namespace:alt-name>NULL</namespace:alt-name>
        <namespace:woe-id>2346351</namespace:woe-id>
        <namespace:subregion>NULL</namespace:subregion>
        <namespace:fips>NI23</namespace:fips>
        <namespace:postal-code>KD</namespace:postal-code>
        <namespace:name>Kaduna</namespace:name>
        <namespace:country>Nigeria</namespace:country>
        <namespace:type-en>State</namespace:type-en>
        <namespace:region>North-West</namespace:region>
        <namespace:longitude>7.43906</namespace:longitude>
        <namespace:woe-name>Kaduna</namespace:woe-name>
        <namespace:latitude>10.3294</namespace:latitude>
        <namespace:woe-label>Kaduna, NG, Nigeria</namespace:woe-label>
        <namespace:type>State</namespace:type>
        <namespace:hc-middle-x>0.54</namespace:hc-middle-x>
        <namespace:hc-middle-y>0.35</namespace:hc-middle-y>
        <namespace:hc-key>ng-kd</namespace:hc-key>
        <namespace:hc-a2>KD</namespace:hc-a2>
      </namespace:desc>
    </path>
    <path
       fill="#CEE3F5"
       stroke="#6E6E6E"
       stroke-width="0.4"
       id="Jigawa"
       d="M464.3,81.2 L456.7,86.3 L451.8,84.5 L444.4,87.2 L438.9,104.1 L438.2,110.5 L420.5,117.3 L416.7,119.4 L411.8,119.8 L408.7,122.7 L407.5,127.0 L410.0,128.7 L415.6,127.4 L418.5,129.8 L419.5,136.0 L417.6,139.6 L418.5,143.1 L421.4,142.8 L429.4,154.4 L433.7,156.1 L452.1,159.3 L448.5,164.1 L442.1,166.6 L440.0,173.7 L435.7,171.9 L426.5,172.6 L423.2,171.2 L421.8,168.0 L422.3,160.4 L418.4,154.5 L407.6,156.0 L402.3,152.0 L395.0,152.4 L387.9,149.9 L384.4,149.9 L386.0,143.3 L391.7,137.3 L388.2,135.5 L384.5,129.2 L378.8,127.9 L381.7,121.3 L383.3,114.6 L381.8,109.4 L373.4,110.5 L373.0,107.6 L368.7,108.2 L366.8,106.3 L368.2,103.6 L368.1,98.2 L365.7,95.2 L358.8,93.7 L357.7,88.2 L353.3,85.4 L352.6,79.5 L344.0,77.4 L337.7,79.6 L334.3,86.2 L329.8,77.7 L327.8,74.6 L323.2,74.5 L320.2,72.6 L321.4,63.4 L327.5,62.4 L344.4,62.4 L348.0,69.2 L355.5,71.1 L360.9,70.6 L366.2,67.1 L369.9,61.6 L386.7,63.5 L393.0,62.6 L405.3,64.0 L408.6,62.2 L415.6,64.4 L420.7,62.2 L422.2,59.2 L427.2,56.7 L438.0,53.1 L442.0,56.0 L444.1,63.4 L450.4,62.6 L458.5,64.1 L461.9,69.1 Z">
      <namespace:desc>
        <namespace:labelrank>3</namespace:labelrank>
        <namespace:hasc>NG.JI</namespace:hasc>
        <namespace:alt-name>NULL</namespace:alt-name>
        <namespace:woe-id>2346367</namespace:woe-id>
        <namespace:subregion>NULL</namespace:subregion>
        <namespace:fips>NI39</namespace:fips>
        <namespace:postal-code>JI</namespace:postal-code>
        <namespace:name>Jigawa</namespace:name>
        <namespace:country>Nigeria</namespace:country>
        <namespace:type-en>State</namespace:type-en>
        <namespace:region>North-West</namespace:region>
        <namespace:longitude>9.36225</namespace:longitude>
        <namespace:woe-name>Jigawa</namespace:woe-name>
        <namespace:latitude>12.0714</namespace:latitude>
        <namespace:woe-label>Jigawa, NG, Nigeria</namespace:woe-label>
        <namespace:type>State</namespace:type>
        <namespace:hc-middle-x>0.54</namespace:hc-middle-x>
        <namespace:hc-middle-y>0.28</namespace:hc-middle-y>
        <namespace:hc-key>ng-ji</namespace:hc-key>
        <namespace:hc-a2>JI</namespace:hc-a2>
      </namespace:desc>
    </path>
    <path
       fill="#CEE3F5"
       stroke="#6E6E6E"
       stroke-width="0.4"
       id="Kano"
       d="M356.4,196.6 L351.6,195.7 L349.0,192.7 L344.4,192.1 L341.2,189.4 L345.7,185.0 L344.8,177.9 L345.9,173.4 L344.8,165.2 L338.8,158.9 L330.4,156.2 L327.1,152.8 L323.0,151.3 L319.9,148.1 L321.4,141.9 L319.3,140.9 L311.1,143.5 L304.3,148.6 L300.3,148.9 L296.3,145.5 L295.4,142.5 L296.8,136.8 L298.6,134.7 L307.2,131.8 L304.8,124.1 L303.7,116.2 L304.2,95.6 L308.7,92.5 L318.8,88.7 L320.9,86.7 L324.2,78.6 L329.8,77.7 L334.3,86.2 L337.7,79.6 L344.0,77.4 L352.6,79.5 L353.3,85.4 L357.7,88.2 L358.8,93.7 L365.7,95.2 L368.1,98.2 L368.2,103.6 L366.8,106.3 L368.7,108.2 L373.0,107.6 L373.4,110.5 L381.8,109.4 L383.3,114.6 L381.7,121.3 L378.8,127.9 L384.5,129.2 L388.2,135.5 L391.7,137.3 L386.0,143.3 L384.4,149.9 L378.9,151.9 L373.2,152.6 L363.4,163.9 L357.9,165.1 L356.1,168.8 L355.9,178.1 L360.2,185.8 L360.7,189.8 Z">
      <namespace:desc>
        <namespace:labelrank>7</namespace:labelrank>
        <namespace:hasc>NG.KN</namespace:hasc>
        <namespace:alt-name>NULL</namespace:alt-name>
        <namespace:woe-id>2346357</namespace:woe-id>
        <namespace:subregion>NULL</namespace:subregion>
        <namespace:fips>NI29</namespace:fips>
        <namespace:postal-code>KN</namespace:postal-code>
        <namespace:name>Kano</namespace:name>
        <namespace:country>Nigeria</namespace:country>
        <namespace:type-en>State</namespace:type-en>
        <namespace:region>North-West</namespace:region>
        <namespace:longitude>8.541460000000001</namespace:longitude>
        <namespace:woe-name>Kano</namespace:woe-name>
        <namespace:latitude>11.7323</namespace:latitude>
        <namespace:woe-label>Kano, NG, Nigeria</namespace:woe-label>
        <namespace:type>State</namespace:type>
        <namespace:hc-middle-x>0.50</namespace:hc-middle-x>
        <namespace:hc-middle-y>0.38</namespace:hc-middle-y>
        <namespace:hc-key>ng-kn</namespace:hc-key>
        <namespace:hc-a2>KN</namespace:hc-a2>
      </namespace:desc>
    </path>
  </g>
  <text
     x="350"
     y="714"
     text-anchor="middle"
     font-family="Verdana"
     font-size="8"
     stroke-opacity="0.6"
     id="text3739">Copyright (c) 2015 Highsoft AS, Based on data from Natural Earth</text>
</svg>
