<?xml version="1.0" encoding="UTF-8" standalone="no"?>
<svg
   xmlns:namespace="http://www.highcharts.com/svg/namespace"
   xmlns:dc="http://purl.org/dc/elements/1.1/"
   xmlns:cc="http://creativecommons.org/ns#"
   xmlns:rdf="http://www.w3.org/1999/02/22-rdf-syntax-ns#"
   xmlns:svg="http://www.w3.org/2000/svg"
   xmlns="http://www.w3.org/2000/svg"
   xmlns:sodipodi="http://sodipodi.sourceforge.net/DTD/sodipodi-0.dtd"
   xmlns:inkscape="http://www.inkscape.org/namespaces/inkscape"
   version="1.1"
   height="700pt"
   width="700pt"
   id="svg4531"
   inkscape:version="0.48.4 r9939"
   sodipodi:docname="ng-re.svg">
  <metadata
     id="metadata4582">
    <rdf:RDF>
      <cc:Work
         rdf:about="">
        <dc:format>image/svg+xml</dc:format>
        <dc:type
           rdf:resource="http://purl.org/dc/dcmitype/StillImage" />
      </cc:Work>
    </rdf:RDF>
  </metadata>
  <defs
     id="defs4580" />
  <sodipodi:namedview
     pagecolor="#ffffff"
     bordercolor="#666666"
     borderopacity="1"
     objecttolerance="10"
     gridtolerance="10"
     guidetolerance="10"
     inkscape:pageopacity="0"
     inkscape:pageshadow="2"
     inkscape:window-width="1297"
     inkscape:window-height="744"
     id="namedview4578"
     showgrid="false"
     inkscape:zoom="1.0788571"
     inkscape:cx="437.5"
     inkscape:cy="585.80508"
     inkscape:window-x="69"
     inkscape:window-y="24"
     inkscape:window-maximized="1"
     inkscape:current-layer="admin1" />
  <desc
     id="desc4533">
Map version: 1.1.2
Copyright (c) 2015 Highsoft AS, Based on data from Natural Earth
</desc>
  <title
     id="title4535">Nigeria</title>
  <g
     id="admin1">
    <g
       id="NG">
      <namespace:desc>
        <namespace:name>Nigeria</namespace:name>
        <namespace:labelrank>2</namespace:labelrank>
        <namespace:country-abbrev>Nigeria</namespace:country-abbrev>
        <namespace:subregion>Western Africa</namespace:subregion>
        <namespace:region-wb>Sub-Saharan Africa</namespace:region-wb>
        <namespace:iso-a3>NGA</namespace:iso-a3>
        <namespace:iso-a2>NG</namespace:iso-a2>
        <namespace:woe-id>23424908</namespace:woe-id>
        <namespace:continent>Africa</namespace:continent>
        <namespace:hc-key>ng</namespace:hc-key>
        <namespace:hc-a2>NI</namespace:hc-a2>
      </namespace:desc>
    </g>
    <path
       id="NG.SW"
       d="m 110.9,343.4 0.3,4 -9.5,6.7 -2.4,-0.5 -2.1,-3.5 -3.5,-2.2 -6.5,7.3 -4,-1.1 -3.2,13.1 2.9,2.4 3.6,6.5 -4.2,21.3 -10.7,3.1 -10.9,0.6 3.9,-5.7 -1.6,-7.4 -3.4,-2.3 -0.1,-4.3 -2,-2.9 -5.8,-0.2 -3.5,1.7 -4.9,-5.5 -2.4,1.6 -2.5,5.8 -2.4,2 -6.5,-1 -4.1,-3.8 -2.6,-4.9 -4.3,-4.5 -1.2,-4.4 2.3,-5.9 -0.3,-5.2 -2.3,0 -1.5,5.6 -2.6,-3.5 -0.2,-6.6 -1.5,-2.8 -5.7,-0.3 -5.5,3.8 0.9,-2.4 1.5,-12.1 1.6,-4.3 -2.1,-6.5 0.4,-5.7 2.4,-6.4 3.5,-3 7,-0.9 13.4,-10.1 5.8,1.4 6.9,-3.1 7.6,-4.9 12.2,-5.9 2.5,-2.2 2.1,-6.7 2.7,-1.9 5.5,1 2.9,4.8 4.8,3.4 7,2.5 5.9,1 2.9,-1.7 0.9,2.3 -7.7,8.1 -0.1,7.2 5.1,11.6 2.1,3.1 1.9,7.9 4.9,5.4 3.8,9 z m 29.9,0.5 -1.4,4.7 -6.8,6.2 -0.9,12.7 4.5,12.6 0,2.4 -5.5,2 -1.6,5.6 -0.2,8.6 -2.2,0.3 -5.8,-3.2 -4.9,2.6 -3,5.5 -2.3,1.1 -0.9,-1.1 -10.7,1.5 -3.6,-6.5 -7.4,1.8 -1.6,-5.2 -4.2,1.9 4.2,-21.3 -3.6,-6.5 -2.9,-2.4 3.2,-13.1 4,1.1 6.5,-7.3 3.5,2.2 2.1,3.5 2.4,0.5 9.5,-6.7 -0.3,-4 7.7,0.3 15,-2.8 3,3.2 z m 0,0 2.2,1.9 3.7,-1.1 3.8,2.5 7.3,0.1 1.1,-3.2 3.3,-2.2 6.3,-0.1 -1.1,4.1 7,-1.2 1.9,2.1 -3.1,2.9 0.4,5 2,1.8 9,3.8 -4.2,1.5 -6.9,6.5 -1.9,7.3 -3.3,7.5 -6.2,5.1 -3.3,-1.3 -2.6,-6.9 -3,-1 -12.8,-0.2 -4.2,1.3 -4.5,-12.6 0.9,-12.7 6.8,-6.2 z m -4.5,128.1 -6.9,-9 -3.5,-2.1 -6.4,-7.2 -13.1,-9.4 3.6,0.3 0.9,-2.7 -6.1,-2.6 2.9,-0.6 4.8,-4 -1.6,-8.5 -5,3.6 -5.9,-0.9 -1.6,-2.1 1.5,-5.7 9.4,-8.4 1.4,-7.7 2.3,-1.1 3,-5.5 4.9,-2.6 5.8,3.2 2.2,-0.3 0.2,-8.6 1.6,-5.6 5.5,-2 0,-2.4 4.2,-1.3 12.8,0.2 3,1 2.6,6.9 3.3,1.3 6.2,-5.1 3.3,-7.5 1.9,-7.3 6.9,-6.5 4.2,-1.5 4.7,-0.8 4.3,7.7 3.6,4 -5.5,4.7 1.2,3.2 -0.2,8.2 -4.5,4.1 -3,9 -2.4,2.6 0.2,6.7 -2.1,2.3 -1.3,5.2 -2.8,3 -4.3,-1.3 -4.2,2.5 -1.5,-3.9 1.6,-3.1 -2.7,-2.1 -16.5,-0.2 -8.1,11.1 -0.4,4.6 2.8,5.4 -3.7,7.7 -2.8,1.3 -2,4.5 4.3,4.7 2.6,1.1 1.1,3.5 -6.7,15.9 z m -29.9,-27.7 -5.2,-2.2 -3.7,-0.8 0.2,-3.3 -6.4,-0.4 -4.8,-2.7 3.3,-3.3 0,-2.5 -3.6,-0.2 -3.6,2.1 -2.3,-3.6 2.6,-4.1 -3.5,-1 -34.5,-0.1 -1.4,2.4 -3.3,0 -5.4,-3.6 -1.8,0.7 -4.7,9.9 -3.4,0.5 -12.9,-0.7 -3.4,3.4 -7.3,-0.5 1.6,-5 -0.3,-4.9 2.8,-3.3 -0.2,-2.8 -3,-3.3 0.9,-3.7 -1.2,-6.9 3.6,-3 -2.3,-4.3 1.6,-3.4 -1.1,-14.6 2.5,-0.6 0.6,-3.5 -4.2,-6.5 0.6,-12.2 -3.2,-5.9 5.5,-3.8 5.7,0.3 1.5,2.8 0.2,6.6 2.6,3.5 1.5,-5.6 2.3,0 0.3,5.2 -2.3,5.9 1.2,4.4 4.3,4.5 2.6,4.9 4.1,3.8 6.5,1 2.4,-2 2.5,-5.8 2.4,-1.6 4.9,5.5 3.5,-1.7 5.8,0.2 2,2.9 0.1,4.3 3.4,2.3 1.6,7.4 -3.9,5.7 10.9,-0.6 10.7,-3.1 4.2,-1.9 1.6,5.2 7.4,-1.8 3.6,6.5 10.7,-1.5 0.9,1.1 -1.4,7.7 -9.4,8.4 -1.5,5.7 1.6,2.1 5.9,0.9 5,-3.6 1.6,8.5 -4.8,4 -2.9,0.6 6.1,2.6 -0.9,2.7 z m -8.9,-3 -12.7,-2.4 -15.1,-1.4 -25.2,1 -3.4,-2 9.2,-0.6 1.8,-3.2 10.1,-2.1 1.2,-2.2 5.7,-1 -5,-1.2 -6.5,3 -8.8,2.5 -2.2,-0.9 0.2,-3.6 -4.7,2.9 -1.9,6 0.8,3.1 -10.1,0 -7.8,0.8 -9.1,-0.6 -13.2,1.1 0.5,-6.2 7.3,0.5 3.4,-3.4 12.9,0.7 3.4,-0.5 4.7,-9.9 1.8,-0.7 5.4,3.6 3.3,0 1.4,-2.4 34.5,0.1 3.5,1 -2.6,4.1 2.3,3.6 3.6,-2.1 3.6,0.2 0,2.5 -3.3,3.3 4.8,2.7 6.4,0.4 z"
       style="stroke-width:0.40000000000000002;stroke-miterlimit:4;stroke-dasharray:none;stroke:#6e6e6e;stroke-opacity:1;fill:#cee3f5;fill-opacity:1" />
       <namespace:desc>
         <namespace:labelrank>7</namespace:labelrank>
         <namespace:hasc>NG.SW</namespace:hasc>
         <namespace:alt-name>NULL</namespace:alt-name>
         <namespace:name>South-West</namespace:name>
         <namespace:country>Nigeria</namespace:country>
         <namespace:type-en>Region</namespace:type-en>
         <namespace:region>NULL</namespace:region>
         <namespace:woe-name>South-West</namespace:woe-name>
         <namespace:woe-label>South-West, NG, Nigeria</namespace:woe-label>
         <namespace:type>State</namespace:type>
         <namespace:hc-key>ng-sw</namespace:hc-key>
         <namespace:hc-a2>SW</namespace:hc-a2>
       </namespace:desc>
     </path>
    <path
       id="NG.NE"
       d="m 519,252.1 -20.5,1 -6.2,-0.5 -2.7,-6.4 -1.3,-7.4 -1.8,-3.9 -12.1,-8.8 -2.1,-5.3 6.6,-3.4 -0.1,-11.7 -1.2,-3.5 -7.9,-4.3 -2.5,-8.6 -6.3,-2.7 3.2,-5.9 4.5,-13.5 6.1,-2.9 4.7,-5.3 5.4,-3.2 3.5,-3.7 8,-2.2 8.1,3.8 3.7,2.9 12.3,13.2 1.6,3.6 -0.6,13.5 1,6 6.3,0.1 0.7,5.1 -4.2,7 -0.1,2.6 3.1,4.8 6.9,3.9 4,6.2 4.2,2.6 -0.2,12.9 -3,4.3 -10.8,6.5 -4.9,2.3 z m -26.7,0.5 -8.1,-0.9 -3.9,0.7 -7.1,3.4 -7.4,0.3 -3.2,2 -11.6,-6.7 -28.6,-13.1 -3.5,2.3 3.1,5.3 -0.5,1.9 -5.3,2.8 -1.8,3.6 -4.3,1.3 -9.3,0.6 -11.8,-2.7 -4.7,-6.6 -3.5,-2 2.5,-6.9 -1.5,-8.8 -3.7,-1.4 -6.8,1.2 -2.1,-1.4 0,-9.4 -1.4,-6.1 -2.1,-2.6 -6.8,-0.3 -5.1,-5.1 2.6,-7.4 4.3,-6.8 -0.5,-4 -4.3,-7.7 0.2,-9.3 1.8,-3.7 5.5,-1.2 9.8,-11.3 5.7,-0.7 5.5,-2 3.5,0 7.1,2.5 7.3,-0.4 5.3,4 10.8,-1.5 3.9,5.9 -0.5,7.6 1.4,3.2 3.3,1.4 9.2,-0.7 4.3,1.8 2.1,-7.1 6.4,-2.5 3.6,-4.8 -18.4,-3.2 -4.3,-1.7 -8,-11.6 -2.9,0.3 -0.9,-3.5 1.9,-3.6 -1,-6.2 -2.9,-2.4 -5.6,1.3 -2.5,-1.7 1.2,-4.3 3.1,-2.9 4.9,-0.4 3.8,-2.1 17.7,-6.8 0.7,-6.4 5.5,-16.9 7.4,-2.7 4.9,1.8 7.6,-5.1 7.3,5.8 2.1,11.3 2.4,4.2 0.4,6.6 1.9,9.4 7.1,17.1 0.4,5 -2,9.1 4.4,2.4 -3.5,3.7 -5.4,3.2 -4.7,5.3 -6.1,2.9 -4.5,13.5 -3.2,5.9 6.3,2.7 2.5,8.6 7.9,4.3 1.2,3.5 0.1,11.7 -6.6,3.4 2.1,5.3 12.1,8.8 1.8,3.9 1.3,7.4 z m -82.7,180.8 1.4,-5.7 0.5,-13.7 1.9,-10.2 4.1,-6.4 5.5,-4.5 0.4,-6.9 2.3,-7.1 -2.6,-6.8 -6,-5.3 -5.3,-6.5 -6.7,-4.6 -8.9,-1 -9,0.3 -8.2,2.6 -0.7,-1.3 3.3,-4.8 11.7,-8.5 -0.8,-6.6 -3.1,-3.9 1.8,-4.7 12.5,2 3.9,-4 7.6,-0.2 4.3,-1.2 7.1,-6.3 8.1,-5.1 8.8,-10.6 13.5,-3.4 9.2,-4.6 2,-3.8 -0.4,-9.5 -3.2,-8.9 -0.3,-8.2 -1.7,-5.9 3.2,-2 7.4,-0.3 7.1,-3.4 3.9,-0.7 8.1,0.9 6.2,0.5 20.5,-1 5.5,10.1 5.4,2.2 3.4,3 3.7,7.8 -0.2,4.1 2.1,3.4 6.1,4.7 0.4,4.1 -5.7,12.2 -0.7,8.2 -3.9,3.2 -15,18.3 -7,7.2 -0.5,1.9 2.6,6.2 4,5.9 1.9,0.1 4,-4.7 3.9,0 7.2,7.1 2.9,6.8 0.8,7.8 2.3,6.2 -9.7,11.2 2.5,1.3 6,8.2 -4.2,1.8 -4,4.4 -3.1,0.6 -7.4,6.6 -1.3,3.1 1.9,3.4 -3.5,9.1 -5.5,2.4 -1.6,5.8 -4.1,2.1 -10.5,0.5 -2.6,-1.1 -2.2,-7.3 -0.3,-7.5 -3.1,-3.9 -5.5,-1 -1.9,-1.8 -2.7,-7.6 -13.5,-6.6 -1.5,-4.3 -2.3,10.6 -2.5,4.5 -15.1,0.3 -3.5,-2.6 -0.8,-4.3 -2.7,-0.3 -14.4,12.2 -6.1,0.8 -4.5,14.3 z m 238.2,-262.6 -11.8,2.3 -7.3,-1.3 -1,11.5 -3.1,8 -2,7.9 -2.9,1.7 -4,-0.8 -6.7,-5 -9.1,-2.2 -4.7,1.1 -6.5,6.9 -3.6,1.2 -2.7,4 -4.2,1.9 -8.9,1.6 -3.3,2.8 -5.9,7.9 -7.4,5.3 -9.4,-0.4 -4.2,-2.6 -4,-6.2 -6.9,-3.9 -3.1,-4.8 0.1,-2.6 4.2,-7 -0.7,-5.1 5.3,-3.9 1,-11.7 3.2,-3.7 13.7,-4.9 3.6,-2.8 1.7,-4.1 -0.1,-9.9 5.1,-8 5.8,-7.3 -3.1,-6.2 -5.9,-0.9 3.7,-9.2 -1.2,-8.5 2.4,-19.9 -1.3,-8.8 6.3,-6.1 3.9,-7.2 -0.6,-3.6 -5.7,-5.1 -1.1,-3.7 1.2,-11.4 5,0.8 3.5,-4.9 1.4,-5.8 9.4,-4.8 8.2,-8.3 -1.6,-1.7 5.6,-0.4 5.1,-2.7 11.5,-0.8 2.1,-5.3 5.3,-4.6 14.3,0.3 27.3,36.4 7.2,31.3 0.3,9.5 2.3,1.5 11.9,0.1 5.3,1.6 2.1,4.8 4.1,3.6 3.1,0.6 -3.6,8.2 1.2,6.7 -1.7,8 -2.5,3.8 4.5,5.2 -1.5,7.9 -8.5,5.2 -4.5,1.8 -5.1,4.9 -6.5,3.9 -10.8,-2.1 -6.2,6.6 -3,5.8 -3.7,3.2 z m 0,0 -10.4,15.7 -3.6,10.9 -3.6,20.3 -4.3,3.2 -6.6,1.3 0,6.3 -1.8,6.1 3,4 -2.2,11.1 -1.6,4.2 -12.4,4.2 -7,5.5 2.3,4.7 -0.6,4.5 -3.8,7.7 0.4,4.5 -1.2,11.1 -1.9,4.3 -3.1,0.2 -3.4,5.8 -6,3.2 -4.4,-1 -6.7,0.9 2.1,6.6 -3.5,3.8 -5.4,0.9 -1.4,1.9 0.7,10 -2.8,5.9 0.6,8.4 -8.3,11.3 -2.6,6.4 1,4.7 -7.1,8.5 -2.3,-6.2 -0.8,-7.8 -2.9,-6.8 -7.2,-7.1 -3.9,0 -4,4.7 -1.9,-0.1 -4,-5.9 -2.6,-6.2 0.5,-1.9 7,-7.2 15,-18.3 3.9,-3.2 0.7,-8.2 5.7,-12.2 -0.4,-4.1 -6.1,-4.7 -2.1,-3.4 0.2,-4.1 -3.7,-7.8 -3.4,-3 -5.4,-2.2 -5.5,-10.1 5.4,-0.9 4.9,-2.3 10.8,-6.5 3,-4.3 0.2,-12.9 9.4,0.4 7.4,-5.3 5.9,-7.9 3.3,-2.8 8.9,-1.6 4.2,-1.9 2.7,-4 3.6,-1.2 6.5,-6.9 4.7,-1.1 9.1,2.2 6.7,5 4,0.8 2.9,-1.7 2,-7.9 3.1,-8 1,-11.5 7.3,1.3 z M 408.6,62.2 l 9.8,-11.7 4.2,-2.8 2.2,-4.1 13.3,-7.2 29.5,-6.6 5.6,-0.5 10.4,1.1 28.1,-0.4 17.5,4.2 6.4,2.5 12,7.4 3.4,0.8 4.8,-1.4 7.3,2.6 3.5,0 -1.2,11.4 1.1,3.7 5.7,5.1 0.6,3.6 -3.9,7.2 -6.3,6.1 1.3,8.8 -2.4,19.9 1.2,8.5 -3.7,9.2 5.9,0.9 3.1,6.2 -5.8,7.3 -5.1,8 0.1,9.9 -1.7,4.1 -3.6,2.8 -13.7,4.9 -3.2,3.7 -1,11.7 -5.3,3.9 -6.3,-0.1 -1,-6 0.6,-13.5 -1.6,-3.6 -12.3,-13.2 -3.7,-2.9 -8.1,-3.8 -8,2.2 -4.4,-2.4 2,-9.1 -0.4,-5 -7.1,-17.1 -1.9,-9.4 -0.4,-6.6 -2.4,-4.2 -2.1,-11.3 -7.3,-5.8 -2.4,-12.1 -3.4,-5 -8.1,-1.5 -6.3,0.8 -2.1,-7.4 -4,-2.9 -10.8,3.6 -5,2.5 -1.5,3 -5.1,2.2 z"
       style="fill:#cee3f5;fill-opacity:1;stroke:#6e6e6e;stroke-opacity:1;stroke-width:0.4;stroke-miterlimit:4;stroke-dasharray:none" />
       <namespace:desc>
         <namespace:labelrank>7</namespace:labelrank>
         <namespace:hasc>NG.NE</namespace:hasc>
         <namespace:alt-name>NULL</namespace:alt-name>
         <namespace:name>North-East</namespace:name>
         <namespace:country>Nigeria</namespace:country>
         <namespace:type-en>Region</namespace:type-en>
         <namespace:region>NULL</namespace:region>
         <namespace:woe-name>North-East</namespace:woe-name>
         <namespace:woe-label>North-East, NG, Nigeria</namespace:woe-label>
         <namespace:type>State</namespace:type>
         <namespace:hc-key>ng-ne</namespace:hc-key>
         <namespace:hc-a2>NE</namespace:hc-a2>
       </namespace:desc>
     </path>
    <path
       id="NG.SS"
       d="m 143,456 -1.1,-3.5 -2.6,-1.1 -4.3,-4.7 2,-4.5 2.8,-1.3 3.7,-7.7 -2.8,-5.4 0.4,-4.6 8.1,-11.1 16.5,0.2 2.7,2.1 -1.6,3.1 1.5,3.9 4.2,-2.5 4.3,1.3 2.8,-3 1.3,-5.2 2.1,-2.3 -0.2,-6.7 2.4,-2.6 3,-9 4.5,-4.1 0.2,-8.2 -1.2,-3.2 5.5,-4.7 4.9,2.7 1.2,5.9 7.7,-2.1 5.1,5 4.8,-0.3 4.6,7.9 6.9,-1.6 4,3.4 1.3,4.2 -1.9,11.4 -2.3,6.6 0.1,10.6 1.5,7.5 -3.5,2.8 -4.2,-0.3 -17.9,9 -4.1,3 -4.7,-3.7 -2.4,5.1 4.5,10.5 5.4,4.2 -0.7,4.6 -11.2,10.2 -7.8,0.9 -1.1,-3.6 1.5,-4.2 -6.8,-5.8 -6.8,-3.8 -3.7,0.1 -4.2,3.3 -3.9,-2.2 -7.8,-0.1 -0.3,3.4 -3.4,2.9 -2.2,-0.5 0.1,-6.9 -2.8,-3.3 z m 87.7,24.2 -3.2,12.3 -4.5,4.5 1,2.6 -0.8,1.8 -7.7,1.1 -3.6,4.7 -4.6,0.6 0.3,3.5 -4.4,2.6 -2.7,-0.2 -4.2,2.6 -4.5,-3.1 -2.7,3.1 -7.9,2.2 -4.1,2.5 -3.4,-0.1 -10.7,-6.3 0.1,-2.9 -5.8,0.7 -1.3,-10.2 6.7,-1.4 0.8,1.6 3.7,-2.6 2.8,0.2 -2.4,-2.8 0.3,-4.7 -3.4,5.8 -3,0.9 -10,-2.5 -3.9,-3.8 -0.5,-2.5 2.5,-2.3 9.6,1.4 2,-3.6 4.9,1.2 -4.8,-3.2 -2.9,3.4 -3.2,-0.5 0.4,-7 -3.1,6.3 -5.9,2 -3,-2.7 -2.3,-4.8 0.3,-3.8 3.1,-0.4 2.3,-3.6 4.9,-1.7 1.3,-2.3 -10,5.1 -4.5,3.3 -2.4,-5.2 0,-0.1 6.7,-15.9 4.1,2 2.8,3.3 -0.1,6.9 2.2,0.5 3.4,-2.9 0.3,-3.4 7.8,0.1 3.9,2.2 4.2,-3.3 3.7,-0.1 6.8,3.8 6.8,5.8 -1.5,4.2 1.1,3.6 7.8,-0.9 11.2,-10.2 0.7,-4.6 -5.4,-4.2 -4.5,-10.5 2.4,-5.1 4.7,3.7 4.1,-3 17.9,-9 4.2,0.3 3.5,-2.8 0.2,3.6 3.2,14.2 1.4,3.9 -0.8,3.9 -2.5,1.5 -1.2,10 -3.5,5.1 z m 99.8,55.5 -3,-1.8 -6.9,-7.2 -4.5,-9.2 0.4,-7.2 -3.6,-2.7 -5,0.2 -2.8,-4.5 1.7,-1.9 3.5,-1.5 -2.8,-5.4 -1.8,-12.2 2.4,-5.1 -0.1,-2.8 2.9,-3.9 0.5,-6 4.6,-0.1 1.1,2.7 5.3,-2.4 1.7,-2.4 3.3,0.8 2.1,-6 5.7,-6.8 -0.1,-7.7 3.6,-2.1 -2.3,-6.8 -5.5,-6.1 -0.8,-3.2 7,-4.2 7.2,0.4 4.5,-1.7 1.2,-5.8 3.8,-1.4 8.3,1.8 7,4.1 0.9,6.6 6.1,1.2 9.3,-1.7 5.2,2.6 7,8.2 2.9,5 -3.9,4.6 -5.6,2.4 -3.2,5.7 -8,6.4 -8.7,9.2 -0.4,2.4 -3.6,-0.5 -3.8,3.4 0.3,5.6 -2.5,2.8 4.4,4.8 0.3,3 -2.8,3.4 -0.1,4.8 -2,5.2 0.6,2.8 -1.6,8 -2.4,1.5 -2.9,5.7 -6.3,9.2 0.6,2.9 -2.5,0.5 -3,7 -2.3,-2.8 -4.1,0.1 -0.1,-3.7 -2.9,0.9 -3,-4.4 -4.6,-3.6 z m -93.1,11.1 -1.2,2.9 -0.4,7 -1.2,-6.5 -0.9,4.9 2.1,6.1 -4.6,0.9 -1.3,-8.9 -1.6,8.7 -2.9,0.7 -5,-1.5 -1.2,1.5 -8.5,1.7 -1.4,-1.6 5.1,-6.9 -6.1,2.9 -2.5,6.3 -5.4,0.1 0.5,-5.6 -3.6,-2.5 1,7.1 -3.8,-1.4 -0.8,-5.7 -2.2,4.7 -9.6,-7.1 -11.1,-10.7 -1.3,-5.5 -2.6,-1.6 -3.1,-5.3 -4.9,-17.1 4.1,0.2 10.7,6.3 3.4,0.1 4.1,-2.5 7.9,-2.2 2.7,-3.1 4.5,3.1 4.2,-2.6 2.7,0.2 4.4,-2.6 -0.3,-3.5 4.6,-0.6 3.6,-4.7 7.7,-1.1 0.8,-1.8 5.5,0.5 2,2.6 -7.7,8.1 -3.4,8.1 0.9,5.1 -3.7,7.1 0,2.3 3,2.3 0.8,3.6 6.8,-1.9 3.6,2.3 1.4,4 z m 45.7,-13.2 -2,-9.7 3.3,-4 1.1,-11.6 -0.6,-3.4 7.3,-1.4 -1.7,-2.6 1.5,-4 -0.3,-4.1 3.8,-0.7 4.9,5.1 6.4,4.2 -1.7,1.9 2.8,4.5 5,-0.2 3.6,2.7 -0.4,7.2 4.5,9.2 6.9,7.2 3,1.8 3.3,9.2 -4.5,4.7 -14.6,-0.8 -18.2,2.8 -9.8,-0.8 -1.5,-6.2 -0.1,-0.5 0.2,-3.8 -0.4,-3.6 z m -2.6,20.1 7.8,-0.5 -0.9,1.5 -7.1,1.3 -5.4,-0.2 -0.7,-2.3 3.5,-1.1 z m -11.5,-1.3 4.4,0.3 -1.5,4 -7.4,2.5 -2.6,-0.9 5,-6.5 z m -0.3,-41 0.9,5 -6.1,9.3 0.7,4.6 2.4,0.7 7.2,-1 5.4,1 3.9,2.6 1.8,3.1 0.4,3.6 -0.1,4.3 -0.1,1.7 -4.5,2.8 -8.4,-3.2 -2.8,2 3.8,2.2 -2.8,1.9 -5.4,-6.3 -0.6,-3.4 -2.5,0.4 -3.8,-5.7 1.5,5.7 2.9,1.3 1.8,8.2 -3.9,2.9 -4,0.9 -2.5,-8.5 1.3,-2 -1.2,-6.1 -2.8,2 2,4.5 -0.9,7.2 2.9,5.1 -3.2,1.4 -6.4,-2.4 -2.3,-6 1.4,-6.6 -2.5,-1.2 -3.1,-10.9 -2.1,0 3.4,10.1 3.1,3.6 -1.7,2.5 2.4,9.8 1.9,1.9 -5.6,1.3 -3.5,-1 0.4,-13.9 -4.2,-3.1 -1.4,-4 -3.6,-2.3 -6.8,1.9 -0.8,-3.6 -3,-2.3 0,-2.3 3.7,-7.1 -0.9,-5.1 3.4,-8.1 7.7,-8.1 -2,-2.6 -5.5,-0.5 -1,-2.6 4.5,-4.5 3.2,-12.3 1.8,1.6 1.9,0.1 -2.5,11.3 4.6,1 2.4,2.5 -1.3,8.1 8.6,6.5 8.3,0.6 z"
       style="fill:#cee3f5;fill-opacity:1;stroke:#6e6e6e;stroke-opacity:1;stroke-width:0.4;stroke-miterlimit:4;stroke-dasharray:none" />
       <namespace:desc>
         <namespace:labelrank>7</namespace:labelrank>
         <namespace:hasc>NG.SS</namespace:hasc>
         <namespace:alt-name>NULL</namespace:alt-name>
         <namespace:name>South-South</namespace:name>
         <namespace:country>Nigeria</namespace:country>
         <namespace:type-en>Region</namespace:type-en>
         <namespace:region>NULL</namespace:region>
         <namespace:woe-name>South-South</namespace:woe-name>
         <namespace:woe-label>South-South, NG, Nigeria</namespace:woe-label>
         <namespace:type>State</namespace:type>
         <namespace:hc-key>ng-ss</namespace:hc-key>
         <namespace:hc-a2>SS</namespace:hc-a2>
       </namespace:desc>
     </path>
    <path
       id="NG.SE"
       d="m 330.1,424.4 0.8,3.2 5.5,6.1 2.3,6.8 -3.6,2.1 0.1,7.7 -5.7,6.8 -2.1,6 -3.3,-0.8 -1.7,2.4 -5.3,2.4 -1.1,-2.7 -4.6,0.1 -0.5,6 -2.9,3.9 0.1,2.8 -2.4,5.1 -4.1,-2.2 -1.4,-3.9 -3.2,-1.5 -8.5,-0.1 -3.5,-1.7 0.4,-7.3 2.9,-0.9 4.9,3.6 1.6,-0.8 -0.3,-6 2.6,-3.4 -2.4,-10.2 2.6,-7.8 0,-4.2 -2.3,-7.5 7.8,-1.4 1.9,4.1 4,2.5 2.6,-3.5 1.5,-6.9 7.1,-0.9 2.2,-2.9 5.4,-0.8 z m -46.9,-23.5 2.8,7 5.8,5.5 4.6,0.8 3.9,-1.9 3.9,3.5 0.6,5.7 -2,5.5 -7.8,1.4 2.3,7.5 0,4.2 -2.6,7.8 2.4,10.2 -2.6,3.4 0.3,6 -1.6,0.8 -4.9,-3.6 -2.9,0.9 -3.8,-2.9 -6.2,0.1 -5.8,-1.2 -5.8,-11.7 -2.3,0.1 1.1,-3.6 -3.5,-7 -3.7,-1.3 1.1,-5.9 3.2,-3.5 0.3,-4 -7.1,-2.6 -3.9,-0.2 -0.4,-3.6 3.5,-4.3 3.3,4.2 4.8,-4.7 7.8,-6.1 3.4,-4.3 7,-4.2 z m -7.8,61.9 -3.9,2.1 -2.8,3.5 -4.9,1.3 -5.3,-1.2 -7.6,2.3 -3.1,7.2 -4.8,-0.5 -4.6,1.3 -4,3.1 -1.9,-0.1 -1.8,-1.6 1.2,-5.6 3.5,-5.1 1.2,-10 2.5,-1.5 0.8,-3.9 -1.4,-3.9 -3.2,-14.2 -0.2,-3.6 4.8,0.1 2,-1.9 2.7,-8.5 4,-3.8 0.4,3.6 3.9,0.2 7.1,2.6 -0.3,4 -3.2,3.5 -1.1,5.9 3.7,1.3 3.5,7 -1.1,3.6 2.3,-0.1 5.8,11.7 z m -6.7,5.6 8.1,4.9 0.8,6.6 -1.1,3.5 1.3,7.5 -4.8,8.1 -4.3,12.4 -14.2,0.5 -8.3,-0.6 -8.6,-6.5 1.3,-8.1 -2.4,-2.5 -4.6,-1 2.5,-11.3 4,-3.1 4.6,-1.3 4.8,0.5 3.1,-7.2 7.6,-2.3 5.3,1.2 z m 38.1,33 -6.4,-4.2 -4.9,-5.1 -3.8,0.7 0.3,4.1 -1.5,4 1.7,2.6 -7.3,1.4 0.6,3.4 -1.1,11.6 -3.3,4 2,9.7 -3.9,-2.6 -5.4,-1 -7.2,1 -2.4,-0.7 -0.7,-4.6 6.1,-9.3 -0.9,-5 4.3,-12.4 4.8,-8.1 -1.3,-7.5 1.1,-3.5 -0.8,-6.6 -8.1,-4.9 2.8,-3.5 3.9,-2.1 6.2,-0.1 3.8,2.9 -0.4,7.3 3.5,1.7 8.5,0.1 3.2,1.5 1.4,3.9 4.1,2.2 1.8,12.2 2.8,5.4 z"
       style="stroke-width:0.40000000000000002;stroke-miterlimit:4;stroke-dasharray:none;stroke:#6e6e6e;stroke-opacity:1;fill:#cee3f5;fill-opacity:1" />
       <namespace:desc>
         <namespace:labelrank>7</namespace:labelrank>
         <namespace:hasc>NG.SE</namespace:hasc>
         <namespace:alt-name>NULL</namespace:alt-name>
         <namespace:name>South-East</namespace:name>
         <namespace:country>Nigeria</namespace:country>
         <namespace:type-en>Region</namespace:type-en>
         <namespace:region>NULL</namespace:region>
         <namespace:woe-name>South-East</namespace:woe-name>
         <namespace:woe-label>South-East, NG, Nigeria</namespace:woe-label>
         <namespace:type>State</namespace:type>
         <namespace:hc-key>ng-se</namespace:hc-key>
         <namespace:hc-a2>SE</namespace:hc-a2>
       </namespace:desc>
     </path>
    <path
       id="NG.NC"
       d="m 351.7,275.6 6.2,3.8 0.9,4 2.8,2.9 7.8,0.7 3.8,-1.1 2.6,2.4 -1.1,3.7 -3.9,4.7 -2.1,0.7 -3.9,6.3 2.6,4.8 1.4,7.7 8.4,3.5 5.5,0.1 9.1,-2.1 3.7,0.1 10,4.9 2.1,3.1 -3.9,4 -12.5,-2 -1.8,4.7 3.1,3.9 0.8,6.6 -11.7,8.5 -11.2,-8.3 -8.6,0.3 -16.1,-4.8 -7.7,0.8 -3.3,2.8 -0.9,4.1 4.1,10.3 -0.4,3 -7.3,-4.7 -19.1,-6.4 -17.7,-3.7 -10,0.6 -12.3,-0.8 -11.8,4 -8.6,5 2.6,-8.3 0.7,-12.5 -2.8,-5 2,-5.8 8.4,-1.3 8.3,-2.1 7.6,-3.7 4.6,-6.2 2.5,-7 2.8,-11.9 0,-9.4 1.3,-6.3 2.5,-4.8 11.2,3.5 4.2,-5 3.6,-0.6 2.4,4.6 4.2,2.9 2.1,12.6 4.7,-2.5 4.9,-6.2 7.1,2.1 5.8,6.9 4.7,-2.8 z m 110.9,-17.5 1.7,5.9 0.3,8.2 3.2,8.9 0.4,9.5 -2,3.8 -9.2,4.6 -13.5,3.4 -8.8,10.6 -8.1,5.1 -7.1,6.3 -4.3,1.2 -7.6,0.2 -2.1,-3.1 -10,-4.9 -3.7,-0.1 -9.1,2.1 -5.5,-0.1 -8.4,-3.5 -1.4,-7.7 -2.6,-4.8 3.9,-6.3 2.1,-0.7 3.9,-4.7 1.1,-3.7 -2.6,-2.4 -3.8,1.1 -7.8,-0.7 -2.8,-2.9 -0.9,-4 -6.2,-3.8 1.4,-6.9 -7.3,-9.5 0,-8.4 4.2,-6.6 -0.2,-8.7 2.3,-7.7 -1.5,-4.5 1,-4.4 6.5,-6.1 0.8,-3.7 6.8,0.3 2.1,2.6 1.4,6.1 0,9.4 2.1,1.4 6.8,-1.2 3.7,1.4 1.5,8.8 -2.5,6.9 3.5,2 4.7,6.6 11.8,2.7 9.3,-0.6 4.3,-1.3 1.8,-3.6 5.3,-2.8 0.5,-1.9 -3.1,-5.3 3.5,-2.3 28.6,13.1 z m -179.4,142.8 -4.8,-2 -7,4.2 -3.4,4.3 -7.8,6.1 -4.8,4.7 -3.3,-4.2 -3.5,4.3 -4,3.8 -2.7,8.5 -2,1.9 -4.8,-0.1 -1.5,-7.5 -0.1,-10.6 2.3,-6.6 1.9,-11.4 -1.3,-4.2 -4,-3.4 -6.9,1.6 -4.6,-7.9 -4.8,0.3 -5.1,-5 -7.7,2.1 -1.2,-5.9 -4.9,-2.7 -3.6,-4 -4.3,-7.7 -4.7,0.8 -9,-3.8 -2,-1.8 -0.4,-5 3.1,-2.9 -1.9,-2.1 -7,1.2 1.1,-4.1 -0.4,-3.6 -3.9,-2.4 -4.8,-5.2 -1.3,-5.3 9.4,-10.7 5.3,3.9 11.6,3.6 16.5,1.6 1.8,-3.1 3.4,-14.3 2.5,-3.1 3.6,-0.4 5.5,3.3 5.4,14.7 6.3,4.6 6.9,8.7 3.8,-6.4 4.7,-5.3 5.8,0.1 2.6,-0.4 -2,5.8 2.8,5 -0.7,12.5 -2.6,8.3 8.6,-5 11.8,-4 12.3,0.8 10,-0.6 0.6,9.5 3.4,4.3 1.4,4.2 -0.1,6.8 1.6,9.3 5.6,1.8 -1.9,3.8 -1.2,6.6 -2.5,4 -7.8,4.2 -2.7,5.5 z m -38.4,-78.5 -2.7,-0.4 -1.7,-3.5 -0.4,-42 1.7,-2.3 10.8,-0.4 3.5,1.1 5.5,5.4 3.1,1.4 8.2,-11.6 5.6,-0.6 4.7,0.9 3.1,-3.5 5,2.5 -2.5,4.8 -1.3,6.3 0,9.4 -2.8,11.9 -2.5,7 -4.6,6.2 -7.6,3.7 -8.3,2.1 -8.4,1.3 -2.6,0.4 z M 63.5,160.7 l 5.8,0.3 11.6,6.4 19,0.2 6.1,-0.8 5.8,1.6 7,4.7 3.8,1.2 -2.2,15.2 -2,3.4 -6.8,3.7 -2.3,3.7 0.7,8.7 2.7,2.5 -1.4,8.7 5.4,1.5 1.5,-6 8.8,-2 3.7,-1.8 1.5,-3.9 -4.5,-7.6 -0.2,-8.5 1,-3.9 5.9,0 9.7,-4.2 -3.6,-6.9 2.8,-3.5 -1.3,-6.5 -2.8,-2 -6.2,-1.2 -7.9,-4.6 1,-3.7 8.1,-3.5 17.2,-3.3 4.2,0.2 3.4,2.1 0.8,4.4 4.8,6.9 -0.4,6.9 2.3,2.6 9.7,-0.6 10.1,-4.2 4,-0.6 4.5,-4.4 3.8,1 6.9,10.8 0.8,3.9 -2.8,3.3 0.7,9.4 -2,9.7 4.6,7.1 2,-0.2 5.8,-6.9 7,-5.3 4.2,-0.8 4.1,3.2 4.2,-1.9 4.5,-0.1 1,-3.2 5.8,0.1 0.9,5.9 2.9,-0.3 3.2,2.7 0.6,8.1 5.9,2.7 -1.6,3.9 -8.7,7.5 2.6,3.4 4.2,1.8 12.9,0.4 2.8,2 1,11.5 -4.6,2.4 4.5,3.2 2.5,5.9 -7,10 2.9,3.5 -0.4,3.6 2.8,-0.1 -8.2,11.6 -3.1,-1.4 -5.5,-5.4 -3.5,-1.1 -10.8,0.4 -1.7,2.3 0.4,42 1.7,3.5 2.7,0.4 -4.7,5.3 -3.8,6.4 -6.9,-8.7 -6.3,-4.6 -5.4,-14.7 -5.5,-3.3 -3.6,0.4 -3.2,0.6 -4,-2.4 -9.7,1.2 -8,-0.5 -2.6,-3.9 -5.6,-0.8 -6.5,-6.3 -4.9,-1 -3.9,-2.7 -3.9,0.2 -7.2,-1.8 -3.5,-6.3 -9.2,-4.6 -10.6,3.5 -2.6,-1.7 -0.6,-6.3 -6.8,-3 -0.6,-5.8 -9.4,-0.3 -1.9,-3.3 0.8,-9.1 -0.9,-4 -3.8,-1.3 -19.4,-23.5 -5.6,-1.9 -9.3,0.1 -5.5,0.9 0,-2 -5.2,-7.3 4.8,-8.8 6,1.9 4.9,-11.4 -0.7,-6.1 -2.3,-0.9 -3,-6.4 1.4,-4.8 z M 4.7,313 3.8,298.5 l 1.7,-2.4 0,-5.5 1.3,-8.9 5.3,0.3 1.7,-1.3 5.5,1 4.1,-1 2.3,-2.8 3.7,-9.5 -1.2,-8.4 1.4,-3.4 5.5,-5.6 0.2,-2.9 3.1,0 2.3,-2.6 -1.1,-6.1 1.5,-1.9 6.5,-2.2 3.5,0.4 5.2,-7.1 0.8,-6 3.1,-3.4 5.5,-0.9 9.3,-0.1 5.6,1.9 19.4,23.5 3.8,1.3 0.9,4 -0.8,9.1 1.9,3.3 9.4,0.3 0.6,5.8 6.8,3 0.6,6.3 2.6,1.7 10.6,-3.5 9.2,4.6 3.5,6.3 7.2,1.8 3.9,-0.2 3.9,2.7 4.9,1 6.5,6.3 5.6,0.8 2.6,3.9 8,0.5 9.7,-1.2 4,2.4 3.2,-0.6 -2.5,3.1 -3.4,14.3 -1.8,3.1 -16.5,-1.6 -11.6,-3.6 -5.3,-3.9 -9.4,10.7 1.3,5.3 4.8,5.2 3.9,2.4 0.4,3.6 -6.3,0.1 -3.3,2.2 -1.1,3.2 -7.3,-0.1 -3.8,-2.5 -3.7,1.1 -2.2,-1.9 -4.2,0.2 -3,-3.2 -15,2.8 -7.7,-0.3 -2.6,-2.1 -3.8,-9 -4.9,-5.4 -1.9,-7.9 -2.1,-3.1 -5.1,-11.6 0.1,-7.2 7.7,-8.1 -0.9,-2.3 -2.9,1.7 -5.9,-1 -7,-2.5 -4.8,-3.4 -2.9,-4.8 -5.5,-1 -2.7,1.9 -2.1,6.7 -2.5,2.2 -12.2,5.9 -7.6,4.9 -6.9,3.1 -5.8,-1.4 -13.4,10.1 -7,0.9 z m 404.9,120.4 -2.4,0.3 -3.2,4.3 -3.5,1.5 -2.9,-5 -7,-8.2 -5.2,-2.6 -9.3,1.7 -6.1,-1.2 -0.9,-6.6 -7,-4.1 -8.3,-1.8 -3.8,1.4 -1.2,5.8 -4.5,1.7 -7.2,-0.4 -7,4.2 -2.6,-5.8 -5.4,0.8 -2.2,2.9 -7.1,0.9 -1.5,6.9 -2.6,3.5 -4,-2.5 -1.9,-4.1 2,-5.5 -0.6,-5.7 -3.9,-3.5 -3.9,1.9 -4.6,-0.8 -5.8,-5.5 -2.8,-7 6.6,4 2.7,-5.5 7.8,-4.2 2.5,-4 1.2,-6.6 1.9,-3.8 -5.6,-1.8 -1.6,-9.3 0.1,-6.8 -1.4,-4.2 -3.4,-4.3 -0.6,-9.5 17.7,3.7 19.1,6.4 7.3,4.7 0.4,-3 -4.1,-10.3 0.9,-4.1 3.3,-2.8 7.7,-0.8 16.1,4.8 8.6,-0.3 11.2,8.3 -3.3,4.8 0.7,1.3 8.2,-2.6 9,-0.3 8.9,1 6.7,4.6 5.3,6.5 6,5.3 2.6,6.8 -2.3,7.1 -0.4,6.9 -5.5,4.5 -4.1,6.4 -1.9,10.2 -0.5,13.7 z"
       style="fill:#cee3f5;fill-opacity:1;stroke:#6e6e6e;stroke-opacity:1;stroke-width:0.4;stroke-miterlimit:4;stroke-dasharray:none" />
       <namespace:desc>
         <namespace:labelrank>7</namespace:labelrank>
         <namespace:hasc>NG.NC</namespace:hasc>
         <namespace:alt-name>NULL</namespace:alt-name>
         <namespace:name>North-Central</namespace:name>
         <namespace:country>Nigeria</namespace:country>
         <namespace:type-en>Region</namespace:type-en>
         <namespace:region>NULL</namespace:region>
         <namespace:woe-name>North-Central</namespace:woe-name>
         <namespace:woe-label>North-Central, NG, Nigeria</namespace:woe-label>
         <namespace:type>State</namespace:type>
         <namespace:hc-key>ng-nce</namespace:hc-key>
         <namespace:hc-a2>NC</namespace:hc-a2>
       </namespace:desc>
     </path>
    <path
       id="NG.NW"
       d="m 356.4,196.6 -4.8,-0.9 -2.6,-3 -4.6,-0.6 -3.2,-2.7 4.5,-4.4 -0.9,-7.1 1.1,-4.5 -1.1,-8.2 -6,-6.3 -8.4,-2.7 -3.3,-3.4 -4.1,-1.5 -3.1,-3.2 1.5,-6.2 -2.1,-1 -8.2,2.6 -6.8,5.1 -4,0.3 -4,-3.4 -0.9,-3 1.4,-5.7 1.8,-2.1 8.6,-2.9 -2.4,-7.7 -1.1,-7.9 0.5,-20.6 4.5,-3.1 10.1,-3.8 2.1,-2 3.3,-8.1 5.6,-0.9 4.5,8.5 3.4,-6.6 6.3,-2.2 8.6,2.1 0.7,5.9 4.4,2.8 1.1,5.5 6.9,1.5 2.4,3 0.1,5.4 -1.4,2.7 1.9,1.9 4.3,-0.6 0.4,2.9 8.4,-1.1 1.5,5.2 -1.6,6.7 -2.9,6.6 5.7,1.3 3.7,6.3 3.5,1.8 -5.7,6 -1.6,6.6 -5.5,2 -5.7,0.7 -9.8,11.3 -5.5,1.2 -1.8,3.7 -0.2,9.3 4.3,7.7 0.5,4 z m 107.9,-115.4 -7.6,5.1 -4.9,-1.8 -7.4,2.7 -5.5,16.9 -0.7,6.4 -17.7,6.8 -3.8,2.1 -4.9,0.4 -3.1,2.9 -1.2,4.3 2.5,1.7 5.6,-1.3 2.9,2.4 1,6.2 -1.9,3.6 0.9,3.5 2.9,-0.3 8,11.6 4.3,1.7 18.4,3.2 -3.6,4.8 -6.4,2.5 -2.1,7.1 -4.3,-1.8 -9.2,0.7 -3.3,-1.4 -1.4,-3.2 0.5,-7.6 -3.9,-5.9 -10.8,1.5 -5.3,-4 -7.3,0.4 -7.1,-2.5 -3.5,0 1.6,-6.6 5.7,-6 -3.5,-1.8 -3.7,-6.3 -5.7,-1.3 2.9,-6.6 1.6,-6.7 -1.5,-5.2 -8.4,1.1 -0.4,-2.9 -4.3,0.6 -1.9,-1.9 1.4,-2.7 -0.1,-5.4 -2.4,-3 -6.9,-1.5 -1.1,-5.5 -4.4,-2.8 -0.7,-5.9 -8.6,-2.1 -6.3,2.2 -3.4,6.6 -4.5,-8.5 -2,-3.1 -4.6,-0.1 -3,-1.9 1.2,-9.2 6.1,-1 16.9,0 3.6,6.8 7.5,1.9 5.4,-0.5 5.3,-3.5 3.7,-5.5 16.8,1.9 6.3,-0.9 12.3,1.4 3.3,-1.8 7,2.2 5.1,-2.2 1.5,-3 5,-2.5 10.8,-3.6 4,2.9 2.1,7.4 6.3,-0.8 8.1,1.5 3.4,5 z m -107.9,115.4 -2.6,7.4 5.1,5.1 -0.8,3.7 -6.5,6.1 -1,4.4 1.5,4.5 -2.3,7.7 0.2,8.7 -4.2,6.6 0,8.4 7.3,9.5 -1.4,6.9 -5.6,9.3 -4.7,2.8 -5.8,-6.9 -7.1,-2.1 -4.9,6.2 -4.7,2.5 -2.1,-12.6 -4.2,-2.9 -2.4,-4.6 -3.6,0.6 -4.2,5 -11.2,-3.5 -5,-2.5 -3.1,3.5 -4.7,-0.9 -5.6,0.6 -2.8,0.1 0.4,-3.6 -2.9,-3.5 7,-10 -2.5,-5.9 -4.5,-3.2 4.6,-2.4 -1,-11.5 -2.8,-2 -12.9,-0.4 -4.2,-1.8 -2.6,-3.4 8.7,-7.5 1.6,-3.9 -5.9,-2.7 -0.6,-8.1 -3.2,-2.7 -2.9,0.3 -0.9,-5.9 -5.8,-0.1 -1,3.2 -4.5,0.1 -4.2,1.9 -4.1,-3.2 -4.2,0.8 -7,5.3 -5.8,6.9 -2,0.2 -4.6,-7.1 2,-9.7 -0.7,-9.4 2.8,-3.3 3.6,-1.6 0.3,-2.3 6.7,-6.4 7.7,1.8 11.3,-3.2 3.3,-3.7 2.9,-8.5 6.3,-5.4 7.1,1.7 1.7,3.4 -2.4,4.1 6.3,2.4 4.9,3.4 3.3,-2.5 0,-6.4 8.1,0 1.3,-4 3.6,-2.1 4.3,0.8 7,4.7 4.7,-1.9 2,-3 4,-0.3 6.8,-5.1 8.2,-2.6 2.1,1 -1.5,6.2 3.1,3.2 4.1,1.5 3.3,3.4 8.4,2.7 6,6.3 1.1,8.2 -1.1,4.5 0.9,7.1 -4.5,4.4 3.2,2.7 4.6,0.6 2.6,3 z m -215.7,-67.8 6.8,1.6 5.5,-1.4 1.5,-2.4 7.2,0.2 2.2,2.9 8.4,3 10.8,-1.2 6.4,1.5 2.7,2.7 -1.8,8.4 3.4,2.7 4.4,7.1 0.4,9 -3.8,-1 -4.5,4.4 -4,0.6 -10.1,4.2 -9.7,0.6 -2.3,-2.6 0.4,-6.9 -4.8,-6.9 -0.8,-4.4 -3.4,-2.1 -4.2,-0.2 -17.2,3.3 -8.1,3.5 -1,3.7 7.9,4.6 6.2,1.2 2.8,2 1.3,6.5 -2.8,3.5 3.6,6.9 -9.7,4.2 -5.9,0 -1,3.9 0.2,8.5 4.5,7.6 -1.5,3.9 -3.7,1.8 -8.8,2 -1.5,6 -5.4,-1.5 1.4,-8.7 -2.7,-2.5 -0.7,-8.7 2.3,-3.7 6.8,-3.7 2,-3.4 2.2,-15.2 -3.8,-1.2 -7,-4.7 -5.8,-1.6 -6.1,0.8 -19,-0.2 -11.6,-6.4 -5.8,-0.3 -2.5,-1.4 -10.2,-14.8 -0.9,-3 2.4,-6.7 4.1,-6.8 5.5,-5 -3.2,-5.3 -0.3,-3.4 2.9,-4.7 -1.6,-6.4 1.8,-10.3 0,-15.3 12.8,-9.3 3.8,-3.5 9.5,-14.4 2.1,-12.6 8.6,0.6 4.1,-1.4 7,5.3 8,2.9 4,2.4 4,-0.9 2,-2.9 2.5,0.8 -3,12.1 3.2,7 -1.5,8.7 1.6,9.5 -0.2,4.4 -2.7,1.3 -3.9,-1.3 -4.2,0.9 -2.1,3.7 0.1,22.6 -2.1,9.2 -2.7,5.5 -0.5,5.6 4.4,3.1 4.6,-4.1 11.1,-4.8 z m 0,0 0.7,-27.6 2.3,-7.1 8.5,1.6 17.7,-0.6 2.9,-3 -1.3,-9 0.4,-3.8 2.8,-1.9 5.2,-7.2 3,-2.3 13,-1.1 4.3,-1.5 1.7,-3.1 -0.9,-10.1 4.3,-3.7 7.9,0.1 1.9,-6.2 6.1,0.8 1.8,2 5.6,1.5 5.6,0 7.4,-4.8 4.8,6.6 4,3.3 9,0.8 -1,6.1 1.7,24.3 0.9,6.5 1.6,3.1 2,9.5 -2.6,6.8 6.3,5 0.6,3.4 -3.5,0.2 -1.4,2.9 -4.8,3.7 -5.5,-0.8 -3.4,1.5 -2.2,10.6 2,3.6 -1.7,9.4 -6.3,5.4 -2.9,8.5 -3.3,3.7 -11.3,3.2 -7.7,-1.8 -6.7,6.4 -0.3,2.3 -3.6,1.6 -0.8,-3.9 -6.9,-10.8 -0.4,-9 -4.4,-7.1 -3.4,-2.7 1.8,-8.4 -2.7,-2.7 -6.4,-1.5 -10.8,1.2 -8.4,-3 -2.2,-2.9 -7.2,-0.2 -1.5,2.4 -5.5,1.4 z m -51,-91 0.6,-15.4 7.1,-1.2 9.2,-8.5 5.9,-3 20.2,-4.4 3.9,2.5 20.1,-0.9 5.9,-6 10.3,-0.9 32.5,13.3 6.3,-1.4 8,3.1 8,7.8 9.3,10.3 4.6,8.7 -7.4,4.8 -5.6,0 -5.6,-1.5 -1.8,-2 -6.1,-0.8 -1.9,6.2 -7.9,-0.1 -4.3,3.7 0.9,10.1 -1.7,3.1 -4.3,1.5 -13,1.1 -3,2.3 -5.2,7.2 -2.8,1.9 -0.4,3.8 1.3,9 -2.9,3 -17.7,0.6 -8.5,-1.6 -2.3,7.1 -0.7,27.6 -8.7,-0.8 -11.1,4.8 -4.6,4.1 -4.4,-3.1 0.5,-5.6 2.7,-5.5 2.1,-9.2 -0.1,-22.6 2.1,-3.7 4.2,-0.9 3.9,1.3 2.7,-1.3 0.2,-4.4 -1.6,-9.5 1.5,-8.7 -3.2,-7 3,-12.1 -2.5,-0.8 -2,2.9 -4,0.9 -4,-2.4 -8,-2.9 -7,-5.3 -4.1,1.4 z m 169.7,14.7 7.8,-7.2 7.3,0.9 3.9,-0.5 21,-12.6 4,-1 14.6,2.1 9.7,5.8 8.7,8 7.8,0.6 8.5,8.3 17.2,4.7 -3.7,5.5 -5.3,3.5 -5.4,0.5 -7.5,-1.9 -3.6,-6.8 -16.9,0 -6.1,1 -1.2,9.2 3,1.9 4.6,0.1 2,3.1 -5.6,0.9 -3.3,8.1 -2.1,2 -10.1,3.8 -4.5,3.1 -0.5,20.6 1.1,7.9 2.4,7.7 -8.6,2.9 -1.8,2.1 -1.4,5.7 0.9,3 4,3.4 -2,3 -4.7,1.9 -7,-4.7 -4.3,-0.8 -3.6,2.1 -1.3,4 -8.1,0 0,6.4 -3.3,2.5 -4.9,-3.4 -6.3,-2.4 2.4,-4.1 -1.7,-3.4 -7.1,-1.7 1.7,-9.4 -2,-3.6 2.2,-10.6 3.4,-1.5 5.5,0.8 4.8,-3.7 1.4,-2.9 3.5,-0.2 -0.6,-3.4 -6.3,-5 2.6,-6.8 -2,-9.5 -1.6,-3.1 -0.9,-6.5 -1.7,-24.3 z"
       style="stroke-width:0.40000000000000002;stroke-miterlimit:4;stroke-dasharray:none;stroke:#6e6e6e;stroke-opacity:1;fill:#cee3f5;fill-opacity:1" />
       <namespace:desc>
         <namespace:labelrank>7</namespace:labelrank>
         <namespace:hasc>NG.NW</namespace:hasc>
         <namespace:alt-name>NULL</namespace:alt-name>
         <namespace:name>North-West</namespace:name>
         <namespace:country>Nigeria</namespace:country>
         <namespace:type-en>Region</namespace:type-en>
         <namespace:region>NULL</namespace:region>
         <namespace:woe-name>North-West</namespace:woe-name>
         <namespace:woe-label>North-West, NG, Nigeria</namespace:woe-label>
         <namespace:type>State</namespace:type>
         <namespace:hc-key>ng-nw</namespace:hc-key>
         <namespace:hc-a2>NW</namespace:hc-a2>
       </namespace:desc>
     </path>
  </g>
  <text
     x="350"
     y="714"
     text-anchor="middle"
     font-family="Verdana"
     font-size="8"
     stroke-opacity="0.6"
     id="text4576">Copyright (c) 2015 Highsoft AS, Based on data from Natural Earth</text>
</svg>
