<?xml version="1.0" encoding="UTF-8" standalone="no"?>
<svg
   xmlns:namespace="http://www.highcharts.com/svg/namespace"
   xmlns:dc="http://purl.org/dc/elements/1.1/"
   xmlns:cc="http://creativecommons.org/ns#"
   xmlns:rdf="http://www.w3.org/1999/02/22-rdf-syntax-ns#"
   xmlns:svg="http://www.w3.org/2000/svg"
   xmlns="http://www.w3.org/2000/svg"
   xmlns:sodipodi="http://sodipodi.sourceforge.net/DTD/sodipodi-0.dtd"
   xmlns:inkscape="http://www.inkscape.org/namespaces/inkscape"
   version="1.1"
   height="700pt"
   width="700pt"
   id="svg3254"
   inkscape:version="0.48.4 r9939"
   sodipodi:docname="ng-nc.svg">
  <metadata
     id="metadata3305">
    <rdf:RDF>
      <cc:Work
         rdf:about="">
        <dc:format>image/svg+xml</dc:format>
        <dc:type
           rdf:resource="http://purl.org/dc/dcmitype/StillImage" />
      </cc:Work>
    </rdf:RDF>
  </metadata>
  <defs
     id="defs3303" />
  <sodipodi:namedview
     pagecolor="#ffffff"
     bordercolor="#666666"
     borderopacity="1"
     objecttolerance="10"
     gridtolerance="10"
     guidetolerance="10"
     inkscape:pageopacity="0"
     inkscape:pageshadow="2"
     inkscape:window-width="1297"
     inkscape:window-height="744"
     id="namedview3301"
     showgrid="false"
     inkscape:zoom="1.0788571"
     inkscape:cx="451.0321"
     inkscape:cy="463.3181"
     inkscape:window-x="69"
     inkscape:window-y="24"
     inkscape:window-maximized="1"
     inkscape:current-layer="admin1" />
  <desc
     id="desc3256">
Map version: 1.1.2
Copyright (c) 2015 Highsoft AS, Based on data from Natural Earth
</desc>
  <title
     id="title3258">Nigeria</title>
  <g
     id="admin1">
    <g
       id="NG">
      <namespace:desc>
        <namespace:name>Nigeria</namespace:name>
        <namespace:labelrank>2</namespace:labelrank>
        <namespace:country-abbrev>Nigeria</namespace:country-abbrev>
        <namespace:subregion>Western Africa</namespace:subregion>
        <namespace:region-wb>Sub-Saharan Africa</namespace:region-wb>
        <namespace:iso-a3>NGA</namespace:iso-a3>
        <namespace:iso-a2>NG</namespace:iso-a2>
        <namespace:woe-id>23424908</namespace:woe-id>
        <namespace:continent>Africa</namespace:continent>
        <namespace:hc-key>ng</namespace:hc-key>
        <namespace:hc-a2>NI</namespace:hc-a2>
      </namespace:desc>
    </g>
    <path
       fill="#CEE3F5"
       stroke="#6E6E6E"
       stroke-width="0.4"
       id="NG.BE"
       d="M409.6,433.4 L407.2,433.7 L404.0,438.0 L400.5,439.5 L397.6,434.5 L390.6,426.3 L385.4,423.7 L376.1,425.4 L370.0,424.2 L369.1,417.6 L362.1,413.5 L353.8,411.7 L350.0,413.1 L348.8,418.9 L344.3,420.6 L337.1,420.2 L330.1,424.4 L327.5,418.6 L322.1,419.4 L319.9,422.3 L312.8,423.2 L311.3,430.1 L308.7,433.6 L304.7,431.1 L302.8,427.0 L304.8,421.5 L304.2,415.8 L300.3,412.3 L296.4,414.2 L291.8,413.4 L286.0,407.9 L283.2,400.9 L289.8,404.9 L292.5,399.4 L300.3,395.2 L302.8,391.2 L304.0,384.6 L305.9,380.8 L300.3,379.0 L298.7,369.7 L298.8,362.9 L297.4,358.7 L294.0,354.4 L293.4,344.9 L311.1,348.6 L330.2,355.0 L337.5,359.7 L337.9,356.7 L333.8,346.4 L334.7,342.3 L338.0,339.5 L345.7,338.7 L361.8,343.5 L370.4,343.2 L381.6,351.5 L378.3,356.3 L379.0,357.6 L387.2,355.0 L396.2,354.7 L405.1,355.7 L411.8,360.3 L417.1,366.8 L423.1,372.1 L425.7,378.9 L423.4,386.0 L423.0,392.9 L417.5,397.4 L413.4,403.8 L411.5,414.0 L411.0,427.7 Z">
      <namespace:desc>
        <namespace:labelrank>3</namespace:labelrank>
        <namespace:hasc>NG.BE</namespace:hasc>
        <namespace:alt-name>NULL</namespace:alt-name>
        <namespace:woe-id>2346354</namespace:woe-id>
        <namespace:subregion>NULL</namespace:subregion>
        <namespace:fips>NI26</namespace:fips>
        <namespace:postal-code>BE</namespace:postal-code>
        <namespace:name>Benue</namespace:name>
        <namespace:country>Nigeria</namespace:country>
        <namespace:type-en>State</namespace:type-en>
        <namespace:region>North-Central</namespace:region>
        <namespace:longitude>8.70736</namespace:longitude>
        <namespace:woe-name>Benue</namespace:woe-name>
        <namespace:latitude>7.48719</namespace:latitude>
        <namespace:woe-label>Benue, NG, Nigeria</namespace:woe-label>
        <namespace:type>State</namespace:type>
        <namespace:hc-middle-x>0.64</namespace:hc-middle-x>
        <namespace:hc-middle-y>0.47</namespace:hc-middle-y>
        <namespace:hc-key>ng-be</namespace:hc-key>
        <namespace:hc-a2>BE</namespace:hc-a2>
      </namespace:desc>
    </path>
    <path
       fill="#CEE3F5"
       stroke="#6E6E6E"
       stroke-width="0.4"
       id="NG.KW"
       d="M4.7,313.0 L3.8,298.5 L5.5,296.1 L5.5,290.6 L6.8,281.7 L12.1,282.0 L13.8,280.7 L19.3,281.7 L23.4,280.7 L25.7,277.9 L29.4,268.4 L28.2,260.0 L29.6,256.6 L35.1,251.0 L35.3,248.1 L38.4,248.1 L40.7,245.5 L39.6,239.4 L41.1,237.5 L47.6,235.3 L51.1,235.7 L56.3,228.6 L57.1,222.6 L60.2,219.2 L65.7,218.3 L75.0,218.2 L80.6,220.1 L100.0,243.6 L103.8,244.9 L104.7,248.9 L103.9,258.0 L105.8,261.3 L115.2,261.6 L115.8,267.4 L122.6,270.4 L123.2,276.7 L125.8,278.4 L136.4,274.9 L145.6,279.5 L149.1,285.8 L156.3,287.6 L160.2,287.4 L164.1,290.1 L169.0,291.1 L175.5,297.4 L181.1,298.2 L183.7,302.1 L191.7,302.6 L201.4,301.4 L205.4,303.8 L208.6,303.2 L206.1,306.3 L202.7,320.6 L200.9,323.7 L184.4,322.1 L172.8,318.5 L167.5,314.6 L158.1,325.3 L159.4,330.6 L164.2,335.8 L168.1,338.2 L168.5,341.8 L162.2,341.9 L158.9,344.1 L157.8,347.3 L150.5,347.2 L146.7,344.7 L143.0,345.8 L140.8,343.9 L136.6,344.1 L133.6,340.9 L118.6,343.7 L110.9,343.4 L108.3,341.3 L104.5,332.3 L99.6,326.9 L97.7,319.0 L95.6,315.9 L90.5,304.3 L90.6,297.1 L98.3,289.0 L97.4,286.7 L94.5,288.4 L88.6,287.4 L81.6,284.9 L76.8,281.5 L73.9,276.7 L68.4,275.7 L65.7,277.6 L63.6,284.3 L61.1,286.5 L48.9,292.4 L41.3,297.3 L34.4,300.4 L28.6,299.0 L15.2,309.1 L8.2,310.0 Z">
      <namespace:desc>
        <namespace:labelrank>3</namespace:labelrank>
        <namespace:hasc>NG.KW</namespace:hasc>
        <namespace:alt-name>NULL</namespace:alt-name>
        <namespace:woe-id>2346358</namespace:woe-id>
        <namespace:subregion>NULL</namespace:subregion>
        <namespace:fips>NI30</namespace:fips>
        <namespace:postal-code>KW</namespace:postal-code>
        <namespace:name>Kwara</namespace:name>
        <namespace:country>Nigeria</namespace:country>
        <namespace:type-en>State</namespace:type-en>
        <namespace:region>North-Central</namespace:region>
        <namespace:longitude>4.46906</namespace:longitude>
        <namespace:woe-name>Kwara</namespace:woe-name>
        <namespace:latitude>8.804449999999999</namespace:latitude>
        <namespace:woe-label>Kwara, NG, Nigeria</namespace:woe-label>
        <namespace:type>State</namespace:type>
        <namespace:hc-middle-x>0.64</namespace:hc-middle-x>
        <namespace:hc-middle-y>0.69</namespace:hc-middle-y>
        <namespace:hc-key>ng-kw</namespace:hc-key>
        <namespace:hc-a2>KW</namespace:hc-a2>
      </namespace:desc>
    </path>
    <path
       fill="#CEE3F5"
       stroke="#6E6E6E"
       stroke-width="0.4"
       id="NG.NI"
       d="M63.5,160.7 L69.3,161.0 L80.9,167.4 L99.9,167.6 L106.0,166.8 L111.8,168.4 L118.8,173.1 L122.6,174.3 L120.4,189.5 L118.4,192.9 L111.6,196.6 L109.3,200.3 L110.0,209.0 L112.7,211.5 L111.3,220.2 L116.7,221.7 L118.2,215.7 L127.0,213.7 L130.7,211.9 L132.2,208.0 L127.7,200.4 L127.5,191.9 L128.5,188.0 L134.4,188.0 L144.1,183.8 L140.5,176.9 L143.3,173.4 L142.0,166.9 L139.2,164.9 L133.0,163.7 L125.1,159.1 L126.1,155.4 L134.2,151.9 L151.4,148.6 L155.6,148.8 L159.0,150.9 L159.8,155.3 L164.6,162.2 L164.2,169.1 L166.5,171.7 L176.2,171.1 L186.3,166.9 L190.3,166.3 L194.8,161.9 L198.6,162.9 L205.5,173.7 L206.3,177.6 L203.5,180.9 L204.2,190.3 L202.2,200.0 L206.8,207.1 L208.8,206.9 L214.6,200.0 L221.6,194.7 L225.8,193.9 L229.9,197.1 L234.1,195.2 L238.6,195.1 L239.6,191.9 L245.4,192.0 L246.3,197.9 L249.2,197.6 L252.4,200.3 L253.0,208.4 L258.9,211.1 L257.3,215.0 L248.6,222.5 L251.2,225.9 L255.4,227.7 L268.3,228.1 L271.1,230.1 L272.1,241.6 L267.5,244.0 L272.0,247.2 L274.5,253.1 L267.5,263.1 L270.4,266.6 L270.0,270.2 L272.8,270.1 L264.6,281.7 L261.5,280.3 L256.0,274.9 L252.5,273.8 L241.7,274.2 L240.0,276.5 L240.4,318.5 L242.1,322.0 L244.8,322.4 L240.1,327.7 L236.3,334.1 L229.4,325.4 L223.1,320.8 L217.7,306.1 L212.2,302.8 L208.6,303.2 L205.4,303.8 L201.4,301.4 L191.7,302.6 L183.7,302.1 L181.1,298.2 L175.5,297.4 L169.0,291.1 L164.1,290.1 L160.2,287.4 L156.3,287.6 L149.1,285.8 L145.6,279.5 L136.4,274.9 L125.8,278.4 L123.2,276.7 L122.6,270.4 L115.8,267.4 L115.2,261.6 L105.8,261.3 L103.9,258.0 L104.7,248.9 L103.8,244.9 L100.0,243.6 L80.6,220.1 L75.0,218.2 L65.7,218.3 L60.2,219.2 L60.2,217.2 L55.0,209.9 L59.8,201.1 L65.8,203.0 L70.7,191.6 L70.0,185.5 L67.7,184.6 L64.7,178.2 L66.1,173.4 Z">
      <namespace:desc>
        <namespace:labelrank>3</namespace:labelrank>
        <namespace:hasc>NG.NI</namespace:hasc>
        <namespace:alt-name>NULL</namespace:alt-name>
        <namespace:woe-id>2346359</namespace:woe-id>
        <namespace:subregion>NULL</namespace:subregion>
        <namespace:fips>NI31</namespace:fips>
        <namespace:postal-code>NI</namespace:postal-code>
        <namespace:name>Niger</namespace:name>
        <namespace:country>Nigeria</namespace:country>
        <namespace:type-en>State</namespace:type-en>
        <namespace:region>North-Central</namespace:region>
        <namespace:longitude>5.45494</namespace:longitude>
        <namespace:woe-name>Niger</namespace:woe-name>
        <namespace:latitude>9.95553</namespace:latitude>
        <namespace:woe-label>Niger, NG, Nigeria</namespace:woe-label>
        <namespace:type>State</namespace:type>
        <namespace:hc-middle-x>0.59</namespace:hc-middle-x>
        <namespace:hc-middle-y>0.47</namespace:hc-middle-y>
        <namespace:hc-key>ng-ni</namespace:hc-key>
        <namespace:hc-a2>NI</namespace:hc-a2>
      </namespace:desc>
    </path>
    <path
       fill="#CEE3F5"
       stroke="#6E6E6E"
       stroke-width="0.4"
       id="NG.FC"
       d="M244.8,322.4 L242.1,322.0 L240.4,318.5 L240.0,276.5 L241.7,274.2 L252.5,273.8 L256.0,274.9 L261.5,280.3 L264.6,281.7 L272.8,270.1 L278.4,269.5 L283.1,270.4 L286.2,266.9 L291.2,269.4 L288.7,274.2 L287.4,280.5 L287.4,289.9 L284.6,301.8 L282.1,308.8 L277.5,315.0 L269.9,318.7 L261.6,320.8 L253.2,322.1 L250.6,322.5 Z">
      <namespace:desc>
        <namespace:labelrank>3</namespace:labelrank>
        <namespace:hasc>NG.FC</namespace:hasc>
        <namespace:alt-name>Abuja</namespace:alt-name>
        <namespace:woe-id>2346345</namespace:woe-id>
        <namespace:subregion>NULL</namespace:subregion>
        <namespace:fips>NI11</namespace:fips>
        <namespace:postal-code>FC</namespace:postal-code>
        <namespace:name>Federal Capital Territory</namespace:name>
        <namespace:country>Nigeria</namespace:country>
        <namespace:type-en>State</namespace:type-en>
        <namespace:region>North-Central</namespace:region>
        <namespace:longitude>7.18889</namespace:longitude>
        <namespace:woe-name>Federal Capital Territory</namespace:woe-name>
        <namespace:latitude>8.78852</namespace:latitude>
        <namespace:woe-label>Abuja Capital Territory, NG, Nigeria</namespace:woe-label>
        <namespace:type>State</namespace:type>
        <namespace:hc-middle-x>0.36</namespace:hc-middle-x>
        <namespace:hc-middle-y>0.56</namespace:hc-middle-y>
        <namespace:hc-key>ng-fc</namespace:hc-key>
        <namespace:hc-a2>FC</namespace:hc-a2>
      </namespace:desc>
    </path>
    <path
       fill="#CEE3F5"
       stroke="#6E6E6E"
       stroke-width="0.4"
       id="NG.KO"
       d="M283.2,400.9 L278.4,398.9 L271.4,403.1 L268.0,407.4 L260.2,413.5 L255.4,418.2 L252.1,414.0 L248.6,418.3 L244.6,422.1 L241.9,430.6 L239.9,432.5 L235.1,432.4 L233.6,424.9 L233.5,414.3 L235.8,407.7 L237.7,396.3 L236.4,392.1 L232.4,388.7 L225.5,390.3 L220.9,382.4 L216.1,382.7 L211.0,377.7 L203.3,379.8 L202.1,373.9 L197.2,371.2 L193.6,367.2 L189.3,359.5 L184.6,360.3 L175.6,356.5 L173.6,354.7 L173.2,349.7 L176.3,346.8 L174.4,344.7 L167.4,345.9 L168.5,341.8 L168.1,338.2 L164.2,335.8 L159.4,330.6 L158.1,325.3 L167.5,314.6 L172.8,318.5 L184.4,322.1 L200.9,323.7 L202.7,320.6 L206.1,306.3 L208.6,303.2 L212.2,302.8 L217.7,306.1 L223.1,320.8 L229.4,325.4 L236.3,334.1 L240.1,327.7 L244.8,322.4 L250.6,322.5 L253.2,322.1 L251.2,327.9 L254.0,332.9 L253.3,345.4 L250.7,353.7 L259.3,348.7 L271.1,344.7 L283.4,345.5 L293.4,344.9 L294.0,354.4 L297.4,358.7 L298.8,362.9 L298.7,369.7 L300.3,379.0 L305.9,380.8 L304.0,384.6 L302.8,391.2 L300.3,395.2 L292.5,399.4 L289.8,404.9 Z">
      <namespace:desc>
        <namespace:labelrank>3</namespace:labelrank>
        <namespace:hasc>NG.KO</namespace:hasc>
        <namespace:alt-name>NULL</namespace:alt-name>
        <namespace:woe-id>2346369</namespace:woe-id>
        <namespace:subregion>NULL</namespace:subregion>
        <namespace:fips>NI41</namespace:fips>
        <namespace:postal-code>KO</namespace:postal-code>
        <namespace:name>Kogi</namespace:name>
        <namespace:country>Nigeria</namespace:country>
        <namespace:type-en>State</namespace:type-en>
        <namespace:region>North-Central</namespace:region>
        <namespace:longitude>6.6142</namespace:longitude>
        <namespace:woe-name>Kogi</namespace:woe-name>
        <namespace:latitude>7.78485</namespace:latitude>
        <namespace:woe-label>Kogi, NG, Nigeria</namespace:woe-label>
        <namespace:type>State</namespace:type>
        <namespace:hc-middle-x>0.72</namespace:hc-middle-x>
        <namespace:hc-middle-y>0.60</namespace:hc-middle-y>
        <namespace:hc-key>ng-ko</namespace:hc-key>
        <namespace:hc-a2>KO</namespace:hc-a2>
      </namespace:desc>
    </path>
    <path
       fill="#CEE3F5"
       stroke="#6E6E6E"
       stroke-width="0.4"
       id="NG.PL"
       d="M462.6,258.1 L464.3,264.0 L464.6,272.2 L467.8,281.1 L468.2,290.6 L466.2,294.4 L457.0,299.0 L443.5,302.4 L434.7,313.0 L426.6,318.1 L419.5,324.4 L415.2,325.6 L407.6,325.8 L405.5,322.7 L395.5,317.8 L391.8,317.7 L382.7,319.8 L377.2,319.7 L368.8,316.2 L367.4,308.5 L364.8,303.7 L368.7,297.4 L370.8,296.7 L374.7,292.0 L375.8,288.3 L373.2,285.9 L369.4,287.0 L361.6,286.3 L358.8,283.4 L357.9,279.4 L351.7,275.6 L353.1,268.7 L345.8,259.2 L345.8,250.8 L350.0,244.2 L349.8,235.5 L352.1,227.8 L350.6,223.3 L351.6,218.9 L358.1,212.8 L358.9,209.1 L365.7,209.4 L367.8,212.0 L369.2,218.1 L369.2,227.5 L371.3,228.9 L378.1,227.7 L381.8,229.1 L383.3,237.9 L380.8,244.8 L384.3,246.8 L389.0,253.4 L400.8,256.1 L410.1,255.5 L414.4,254.2 L416.2,250.6 L421.5,247.8 L422.0,245.9 L418.9,240.6 L422.4,238.3 L451.0,251.4 Z">
      <namespace:desc>
        <namespace:labelrank>3</namespace:labelrank>
        <namespace:hasc>NG.PL</namespace:hasc>
        <namespace:alt-name>NULL</namespace:alt-name>
        <namespace:woe-id>2346348</namespace:woe-id>
        <namespace:subregion>NULL</namespace:subregion>
        <namespace:fips>NI49</namespace:fips>
        <namespace:postal-code>PL</namespace:postal-code>
        <namespace:name>Plateau</namespace:name>
        <namespace:country>Nigeria</namespace:country>
        <namespace:type-en>State</namespace:type-en>
        <namespace:region>North-Central</namespace:region>
        <namespace:longitude>9.60601</namespace:longitude>
        <namespace:woe-name>Plateau</namespace:woe-name>
        <namespace:latitude>8.95327</namespace:latitude>
        <namespace:woe-label>Plateau, NG, Nigeria</namespace:woe-label>
        <namespace:type>State</namespace:type>
        <namespace:hc-middle-x>0.53</namespace:hc-middle-x>
        <namespace:hc-middle-y>0.64</namespace:hc-middle-y>
        <namespace:hc-key>ng-pl</namespace:hc-key>
        <namespace:hc-a2>PL</namespace:hc-a2>
      </namespace:desc>
    </path>
    <path
       fill="#CEE3F5"
       stroke="#6E6E6E"
       stroke-width="0.4"
       id="NG.NA"
       d="M351.7,275.6 L357.9,279.4 L358.8,283.4 L361.6,286.3 L369.4,287.0 L373.2,285.9 L375.8,288.3 L374.7,292.0 L370.8,296.7 L368.7,297.4 L364.8,303.7 L367.4,308.5 L368.8,316.2 L377.2,319.7 L382.7,319.8 L391.8,317.7 L395.5,317.8 L405.5,322.7 L407.6,325.8 L403.7,329.8 L391.2,327.8 L389.4,332.5 L392.5,336.4 L393.3,343.0 L381.6,351.5 L370.4,343.2 L361.8,343.5 L345.7,338.7 L338.0,339.5 L334.7,342.3 L333.8,346.4 L337.9,356.7 L337.5,359.7 L330.2,355.0 L311.1,348.6 L293.4,344.9 L283.4,345.5 L271.1,344.7 L259.3,348.7 L250.7,353.7 L253.3,345.4 L254.0,332.9 L251.2,327.9 L253.2,322.1 L261.6,320.8 L269.9,318.7 L277.5,315.0 L282.1,308.8 L284.6,301.8 L287.4,289.9 L287.4,280.5 L288.7,274.2 L291.2,269.4 L302.4,272.9 L306.6,267.9 L310.2,267.3 L312.6,271.9 L316.8,274.8 L318.9,287.4 L323.6,284.9 L328.5,278.7 L335.6,280.8 L341.4,287.7 L346.1,284.9 Z">
      <namespace:desc>
        <namespace:labelrank>3</namespace:labelrank>
        <namespace:hasc>NG.NA</namespace:hasc>
        <namespace:alt-name>NULL</namespace:alt-name>
        <namespace:woe-id>20070154</namespace:woe-id>
        <namespace:subregion>NULL</namespace:subregion>
        <namespace:fips>NI56</namespace:fips>
        <namespace:postal-code>NA</namespace:postal-code>
        <namespace:name>Nasarawa</namespace:name>
        <namespace:country>Nigeria</namespace:country>
        <namespace:type-en>State</namespace:type-en>
        <namespace:region>North-Central</namespace:region>
        <namespace:longitude>8.27694</namespace:longitude>
        <namespace:woe-name>Nasarawa</namespace:woe-name>
        <namespace:latitude>8.50412</namespace:latitude>
        <namespace:woe-label>Nasarawa, NG, Nigeria</namespace:woe-label>
        <namespace:type>State</namespace:type>
        <namespace:hc-middle-x>0.49</namespace:hc-middle-x>
        <namespace:hc-middle-y>0.48</namespace:hc-middle-y>
        <namespace:hc-key>ng-na</namespace:hc-key>
        <namespace:hc-a2>NA</namespace:hc-a2>
      </namespace:desc>
    </path>
  </g>
  <text
     x="350"
     y="714"
     text-anchor="middle"
     font-family="Verdana"
     font-size="8"
     stroke-opacity="0.6"
     id="text3299">Copyright (c) 2015 Highsoft AS, Based on data from Natural Earth</text>
</svg>
