<?xml version="1.0" encoding="UTF-8" standalone="no"?>
<svg
   xmlns:namespace="http://www.highcharts.com/svg/namespace"
   xmlns:dc="http://purl.org/dc/elements/1.1/"
   xmlns:cc="http://creativecommons.org/ns#"
   xmlns:rdf="http://www.w3.org/1999/02/22-rdf-syntax-ns#"
   xmlns:svg="http://www.w3.org/2000/svg"
   xmlns="http://www.w3.org/2000/svg"
   xmlns:sodipodi="http://sodipodi.sourceforge.net/DTD/sodipodi-0.dtd"
   xmlns:inkscape="http://www.inkscape.org/namespaces/inkscape"
   version="1.1"
   height="700pt"
   width="700pt"
   id="svg4103"
   inkscape:version="0.48.4 r9939"
   sodipodi:docname="ng-ss.svg">
  <metadata
     id="metadata4154">
    <rdf:RDF>
      <cc:Work
         rdf:about="">
        <dc:format>image/svg+xml</dc:format>
        <dc:type
           rdf:resource="http://purl.org/dc/dcmitype/StillImage" />
      </cc:Work>
    </rdf:RDF>
  </metadata>
  <defs
     id="defs4152" />
  <sodipodi:namedview
     pagecolor="#ffffff"
     bordercolor="#666666"
     borderopacity="1"
     objecttolerance="10"
     gridtolerance="10"
     guidetolerance="10"
     inkscape:pageopacity="0"
     inkscape:pageshadow="2"
     inkscape:window-width="1297"
     inkscape:window-height="744"
     id="namedview4150"
     showgrid="false"
     inkscape:zoom="0.7628672"
     inkscape:cx="437.5"
     inkscape:cy="542.36753"
     inkscape:window-x="69"
     inkscape:window-y="24"
     inkscape:window-maximized="1"
     inkscape:current-layer="admin1" />
  <desc
     id="desc4105">
Map version: 1.1.2
Copyright (c) 2015 Highsoft AS, Based on data from Natural Earth
</desc>
  <title
     id="title4107">Nigeria</title>
  <g
     id="admin1">
    <g
       id="NG">
      <namespace:desc>
        <namespace:name>Nigeria</namespace:name>
        <namespace:labelrank>2</namespace:labelrank>
        <namespace:country-abbrev>Nigeria</namespace:country-abbrev>
        <namespace:subregion>Western Africa</namespace:subregion>
        <namespace:region-wb>Sub-Saharan Africa</namespace:region-wb>
        <namespace:iso-a3>NGA</namespace:iso-a3>
        <namespace:iso-a2>NG</namespace:iso-a2>
        <namespace:woe-id>23424908</namespace:woe-id>
        <namespace:continent>Africa</namespace:continent>
        <namespace:hc-key>ng</namespace:hc-key>
        <namespace:hc-a2>NI</namespace:hc-a2>
      </namespace:desc>
    </g>
    <path
       fill="#CEE3F5"
       stroke="#6E6E6E"
       stroke-width="0.4"
       id="NG.RI"
       d="M280.5,553.7 L288.3,553.2 L287.4,554.7 L280.3,556.0 L274.9,555.8 L274.2,553.5 L277.7,552.4 Z M269.0,552.4 L273.4,552.7 L271.9,556.7 L264.5,559.2 L261.9,558.3 L266.9,551.8 Z M268.7,511.4 L269.6,516.4 L263.5,525.7 L264.2,530.3 L266.6,531.0 L273.8,530.0 L279.2,531.0 L283.1,533.6 L284.9,536.7 L285.3,540.3 L285.2,544.6 L285.1,546.3 L280.6,549.1 L272.2,545.9 L269.4,547.9 L273.2,550.1 L270.4,552.0 L265.0,545.7 L264.4,542.3 L261.9,542.7 L258.1,537.0 L259.6,542.7 L262.5,544.0 L264.3,552.2 L260.4,555.1 L256.4,556.0 L253.9,547.5 L255.2,545.5 L254.0,539.4 L251.2,541.4 L253.2,545.9 L252.3,553.1 L255.2,558.2 L252.0,559.6 L245.6,557.2 L243.3,551.2 L244.7,544.6 L242.2,543.4 L239.1,532.5 L237.0,532.5 L240.4,542.6 L243.5,546.2 L241.8,548.7 L244.2,558.5 L246.1,560.4 L240.5,561.7 L237.0,560.7 L237.4,546.8 L233.2,543.7 L231.8,539.7 L228.2,537.4 L221.4,539.3 L220.6,535.7 L217.6,533.4 L217.6,531.1 L221.3,524.0 L220.4,518.9 L223.8,510.8 L231.5,502.7 L229.5,500.1 L224.0,499.6 L223.0,497.0 L227.5,492.5 L230.7,480.2 L232.5,481.8 L234.4,481.9 L231.9,493.2 L236.5,494.2 L238.9,496.7 L237.6,504.8 L246.2,511.3 L254.5,511.9 Z">
      <namespace:desc>
        <namespace:labelrank>3</namespace:labelrank>
        <namespace:hasc>NG.RI</namespace:hasc>
        <namespace:alt-name>NULL</namespace:alt-name>
        <namespace:woe-id>2346344</namespace:woe-id>
        <namespace:subregion>NULL</namespace:subregion>
        <namespace:fips>NI50</namespace:fips>
        <namespace:postal-code>RI</namespace:postal-code>
        <namespace:name>Rivers</namespace:name>
        <namespace:country>Nigeria</namespace:country>
        <namespace:type-en>State</namespace:type-en>
        <namespace:region>South-South</namespace:region>
        <namespace:longitude>6.81969</namespace:longitude>
        <namespace:woe-name>Rivers</namespace:woe-name>
        <namespace:latitude>4.9979</namespace:latitude>
        <namespace:woe-label>Rivers, NG, Nigeria</namespace:woe-label>
        <namespace:type>State</namespace:type>
        <namespace:hc-middle-x>0.36</namespace:hc-middle-x>
        <namespace:hc-middle-y>0.55</namespace:hc-middle-y>
        <namespace:hc-key>ng-ri</namespace:hc-key>
        <namespace:hc-a2>RI</namespace:hc-a2>
      </namespace:desc>
    </path>
    <path
       fill="#CEE3F5"
       stroke="#6E6E6E"
       stroke-width="0.4"
       id="NG.AK"
       d="M283.1,533.6 L281.1,523.9 L284.4,519.9 L285.5,508.3 L284.9,504.9 L292.2,503.5 L290.5,500.9 L292.0,496.9 L291.7,492.8 L295.5,492.1 L300.4,497.2 L306.8,501.4 L305.1,503.3 L307.9,507.8 L312.9,507.6 L316.5,510.3 L316.1,517.5 L320.6,526.7 L327.5,533.9 L330.5,535.7 L333.8,544.9 L329.3,549.6 L314.7,548.8 L296.5,551.6 L286.7,550.8 L285.2,544.6 L285.1,544.1 L285.3,540.3 L284.9,536.7 Z">
      <namespace:desc>
        <namespace:labelrank>3</namespace:labelrank>
        <namespace:hasc>NG.AK</namespace:hasc>
        <namespace:alt-name>NULL</namespace:alt-name>
        <namespace:woe-id>2346349</namespace:woe-id>
        <namespace:subregion>NULL</namespace:subregion>
        <namespace:fips>NI21</namespace:fips>
        <namespace:postal-code>AK</namespace:postal-code>
        <namespace:name>Akwa Ibom</namespace:name>
        <namespace:country>Nigeria</namespace:country>
        <namespace:type-en>State</namespace:type-en>
        <namespace:region>South-South</namespace:region>
        <namespace:longitude>7.90963</namespace:longitude>
        <namespace:woe-name>Akwa Ibom</namespace:woe-name>
        <namespace:latitude>4.89926</namespace:latitude>
        <namespace:woe-label>Akwa Ibom, NG, Nigeria</namespace:woe-label>
        <namespace:type>State</namespace:type>
        <namespace:hc-middle-x>0.38</namespace:hc-middle-x>
        <namespace:hc-middle-y>0.61</namespace:hc-middle-y>
        <namespace:hc-key>ng-ak</namespace:hc-key>
        <namespace:hc-a2>AK</namespace:hc-a2>
      </namespace:desc>
    </path>
    <path
       fill="#CEE3F5"
       stroke="#6E6E6E"
       stroke-width="0.4"
       id="NG.BY"
       d="M237.4,546.8 L236.2,549.7 L235.8,556.7 L234.6,550.2 L233.7,555.1 L235.8,561.2 L231.2,562.1 L229.9,553.2 L228.3,561.9 L225.4,562.6 L220.4,561.1 L219.2,562.6 L210.7,564.3 L209.3,562.7 L214.4,555.8 L208.3,558.7 L205.8,565.0 L200.4,565.1 L200.9,559.5 L197.3,557.0 L198.3,564.1 L194.5,562.7 L193.7,557.0 L191.5,561.7 L181.9,554.6 L170.8,543.9 L169.5,538.4 L166.9,536.8 L163.8,531.5 L158.9,514.4 L163.0,514.6 L173.7,520.9 L177.1,521.0 L181.2,518.5 L189.1,516.3 L191.8,513.2 L196.3,516.3 L200.5,513.7 L203.2,513.9 L207.6,511.3 L207.3,507.8 L211.9,507.2 L215.5,502.5 L223.2,501.4 L224.0,499.6 L229.5,500.1 L231.5,502.7 L223.8,510.8 L220.4,518.9 L221.3,524.0 L217.6,531.1 L217.6,533.4 L220.6,535.7 L221.4,539.3 L228.2,537.4 L231.8,539.7 L233.2,543.7 Z">
      <namespace:desc>
        <namespace:labelrank>3</namespace:labelrank>
        <namespace:hasc>NG.BY</namespace:hasc>
        <namespace:alt-name>NULL</namespace:alt-name>
        <namespace:woe-id>20070152</namespace:woe-id>
        <namespace:subregion>NULL</namespace:subregion>
        <namespace:fips>NI52</namespace:fips>
        <namespace:postal-code>BY</namespace:postal-code>
        <namespace:name>Bayelsa</namespace:name>
        <namespace:country>Nigeria</namespace:country>
        <namespace:type-en>State</namespace:type-en>
        <namespace:region>South-South</namespace:region>
        <namespace:longitude>5.97421</namespace:longitude>
        <namespace:woe-name>Bayelsa</namespace:woe-name>
        <namespace:latitude>4.73907</namespace:latitude>
        <namespace:woe-label>Bayelsa, NG, Nigeria</namespace:woe-label>
        <namespace:type>State</namespace:type>
        <namespace:hc-middle-x>0.55</namespace:hc-middle-x>
        <namespace:hc-middle-y>0.64</namespace:hc-middle-y>
        <namespace:hc-key>ng-by</namespace:hc-key>
        <namespace:hc-a2>BY</namespace:hc-a2>
      </namespace:desc>
    </path>
    <path
       fill="#CEE3F5"
       stroke="#6E6E6E"
       stroke-width="0.4"
       id="NG.CR"
       d="M330.5,535.7 L327.5,533.9 L320.6,526.7 L316.1,517.5 L316.5,510.3 L312.9,507.6 L307.9,507.8 L305.1,503.3 L306.8,501.4 L310.3,499.9 L307.5,494.5 L305.7,482.3 L308.1,477.2 L308.0,474.4 L310.9,470.5 L311.4,464.5 L316.0,464.4 L317.1,467.1 L322.4,464.7 L324.1,462.3 L327.4,463.1 L329.5,457.1 L335.2,450.3 L335.1,442.6 L338.7,440.5 L336.4,433.7 L330.9,427.6 L330.1,424.4 L337.1,420.2 L344.3,420.6 L348.8,418.9 L350.0,413.1 L353.8,411.7 L362.1,413.5 L369.1,417.6 L370.0,424.2 L376.1,425.4 L385.4,423.7 L390.6,426.3 L397.6,434.5 L400.5,439.5 L396.6,444.1 L391.0,446.5 L387.8,452.2 L379.8,458.6 L371.1,467.8 L370.7,470.2 L367.1,469.7 L363.3,473.1 L363.6,478.7 L361.1,481.5 L365.5,486.3 L365.8,489.3 L363.0,492.7 L362.9,497.5 L360.9,502.7 L361.5,505.5 L359.9,513.5 L357.5,515.0 L354.6,520.7 L348.3,529.9 L348.9,532.8 L346.4,533.3 L343.4,540.3 L341.1,537.5 L337.0,537.6 L336.9,533.9 L334.0,534.8 L331.0,530.4 L326.4,526.8 Z">
      <namespace:desc>
        <namespace:labelrank>3</namespace:labelrank>
        <namespace:hasc>NG.CR</namespace:hasc>
        <namespace:alt-name>NULL</namespace:alt-name>
        <namespace:woe-id>2346350</namespace:woe-id>
        <namespace:subregion>NULL</namespace:subregion>
        <namespace:fips>NI22</namespace:fips>
        <namespace:postal-code>CR</namespace:postal-code>
        <namespace:name>Cross River</namespace:name>
        <namespace:country>Nigeria</namespace:country>
        <namespace:type-en>State</namespace:type-en>
        <namespace:region>South-South</namespace:region>
        <namespace:longitude>8.67873</namespace:longitude>
        <namespace:woe-name>Cross River</namespace:woe-name>
        <namespace:latitude>5.93762</namespace:latitude>
        <namespace:woe-label>Cross River, NG, Nigeria</namespace:woe-label>
        <namespace:type>State</namespace:type>
        <namespace:hc-middle-x>0.44</namespace:hc-middle-x>
        <namespace:hc-middle-y>0.43</namespace:hc-middle-y>
        <namespace:hc-key>ng-cr</namespace:hc-key>
        <namespace:hc-a2>CR</namespace:hc-a2>
      </namespace:desc>
    </path>
    <path
       fill="#CEE3F5"
       stroke="#6E6E6E"
       stroke-width="0.4"
       id="NG.DE"
       d="M230.7,480.2 L227.5,492.5 L223.0,497.0 L224.0,499.6 L223.2,501.4 L215.5,502.5 L211.9,507.2 L207.3,507.8 L207.6,511.3 L203.2,513.9 L200.5,513.7 L196.3,516.3 L191.8,513.2 L189.1,516.3 L181.2,518.5 L177.1,521.0 L173.7,520.9 L163.0,514.6 L163.1,511.7 L157.3,512.4 L156.0,502.2 L162.7,500.8 L163.5,502.4 L167.2,499.8 L170.0,500.0 L167.6,497.2 L167.9,492.5 L164.5,498.3 L161.5,499.2 L151.5,496.7 L147.6,492.9 L147.1,490.4 L149.6,488.1 L159.2,489.5 L161.2,485.9 L166.1,487.1 L161.3,483.9 L158.4,487.3 L155.2,486.8 L155.6,479.8 L152.5,486.1 L146.6,488.1 L143.6,485.4 L141.3,480.6 L141.6,476.8 L144.7,476.4 L147.0,472.8 L151.9,471.1 L153.2,468.8 L143.2,473.9 L138.7,477.2 L136.3,472.0 L136.3,471.9 L143.0,456.0 L147.1,458.0 L149.9,461.3 L149.8,468.2 L152.0,468.7 L155.4,465.8 L155.7,462.4 L163.5,462.5 L167.4,464.7 L171.6,461.4 L175.3,461.3 L182.1,465.1 L188.9,470.9 L187.4,475.1 L188.5,478.7 L196.3,477.8 L207.5,467.6 L208.2,463.0 L202.8,458.8 L198.3,448.3 L200.7,443.2 L205.4,446.9 L209.5,443.9 L227.4,434.9 L231.6,435.2 L235.1,432.4 L235.3,436.0 L238.5,450.2 L239.9,454.1 L239.1,458.0 L236.6,459.5 L235.4,469.5 L231.9,474.6 Z">
      <namespace:desc>
        <namespace:labelrank>3</namespace:labelrank>
        <namespace:hasc>NG.DE</namespace:hasc>
        <namespace:alt-name>NULL</namespace:alt-name>
        <namespace:woe-id>2346364</namespace:woe-id>
        <namespace:subregion>NULL</namespace:subregion>
        <namespace:fips>NI36</namespace:fips>
        <namespace:postal-code>DE</namespace:postal-code>
        <namespace:name>Delta</namespace:name>
        <namespace:country>Nigeria</namespace:country>
        <namespace:type-en>State</namespace:type-en>
        <namespace:region>South-South</namespace:region>
        <namespace:longitude>5.88195</namespace:longitude>
        <namespace:woe-name>Delta</namespace:woe-name>
        <namespace:latitude>5.44265</namespace:latitude>
        <namespace:woe-label>Delta, NG, Nigeria</namespace:woe-label>
        <namespace:type>State</namespace:type>
        <namespace:hc-middle-x>0.45</namespace:hc-middle-x>
        <namespace:hc-middle-y>0.67</namespace:hc-middle-y>
        <namespace:hc-key>ng-de</namespace:hc-key>
        <namespace:hc-a2>DE</namespace:hc-a2>
      </namespace:desc>
    </path>
    <path
       fill="#CEE3F5"
       stroke="#6E6E6E"
       stroke-width="0.4"
       id="NG.ED"
       d="M143.0,456.0 L141.9,452.5 L139.3,451.4 L135.0,446.7 L137.0,442.2 L139.8,440.9 L143.5,433.2 L140.7,427.8 L141.1,423.2 L149.2,412.1 L165.7,412.3 L168.4,414.4 L166.8,417.5 L168.3,421.4 L172.5,418.9 L176.8,420.2 L179.6,417.2 L180.9,412.0 L183.0,409.7 L182.8,403.0 L185.2,400.4 L188.2,391.4 L192.7,387.3 L192.9,379.1 L191.7,375.9 L197.2,371.2 L202.1,373.9 L203.3,379.8 L211.0,377.7 L216.1,382.7 L220.9,382.4 L225.5,390.3 L232.4,388.7 L236.4,392.1 L237.7,396.3 L235.8,407.7 L233.5,414.3 L233.6,424.9 L235.1,432.4 L231.6,435.2 L227.4,434.9 L209.5,443.9 L205.4,446.9 L200.7,443.2 L198.3,448.3 L202.8,458.8 L208.2,463.0 L207.5,467.6 L196.3,477.8 L188.5,478.7 L187.4,475.1 L188.9,470.9 L182.1,465.1 L175.3,461.3 L171.6,461.4 L167.4,464.7 L163.5,462.5 L155.7,462.4 L155.4,465.8 L152.0,468.7 L149.8,468.2 L149.9,461.3 L147.1,458.0 Z">
      <namespace:desc>
        <namespace:labelrank>3</namespace:labelrank>
        <namespace:hasc>NG.ED</namespace:hasc>
        <namespace:alt-name>NULL</namespace:alt-name>
        <namespace:woe-id>2346365</namespace:woe-id>
        <namespace:subregion>NULL</namespace:subregion>
        <namespace:fips>NI37</namespace:fips>
        <namespace:postal-code>ED</namespace:postal-code>
        <namespace:name>Edo</namespace:name>
        <namespace:country>Nigeria</namespace:country>
        <namespace:type-en>State</namespace:type-en>
        <namespace:region>South-South</namespace:region>
        <namespace:longitude>5.84934</namespace:longitude>
        <namespace:woe-name>Edo</namespace:woe-name>
        <namespace:latitude>6.52416</namespace:latitude>
        <namespace:woe-label>Edo, NG, Nigeria</namespace:woe-label>
        <namespace:type>State</namespace:type>
        <namespace:hc-middle-x>0.57</namespace:hc-middle-x>
        <namespace:hc-middle-y>0.54</namespace:hc-middle-y>
        <namespace:hc-key>ng-ed</namespace:hc-key>
        <namespace:hc-a2>ED</namespace:hc-a2>
      </namespace:desc>
    </path>
  </g>
  <text
     x="350"
     y="714"
     text-anchor="middle"
     font-family="Verdana"
     font-size="8"
     stroke-opacity="0.6"
     id="text4148">Copyright (c) 2015 Highsoft AS, Based on data from Natural Earth</text>
</svg>
