<?xml version="1.0" encoding="UTF-8" standalone="no"?>
<svg
   xmlns:namespace="http://www.highcharts.com/svg/namespace"
   xmlns:dc="http://purl.org/dc/elements/1.1/"
   xmlns:cc="http://creativecommons.org/ns#"
   xmlns:rdf="http://www.w3.org/1999/02/22-rdf-syntax-ns#"
   xmlns:svg="http://www.w3.org/2000/svg"
   xmlns="http://www.w3.org/2000/svg"
   xmlns:sodipodi="http://sodipodi.sourceforge.net/DTD/sodipodi-0.dtd"
   xmlns:inkscape="http://www.inkscape.org/namespaces/inkscape"
   version="1.1"
   height="700pt"
   width="700pt"
   id="svg4281"
   inkscape:version="0.48.4 r9939"
   sodipodi:docname="ng-sw.svg">
  <metadata
     id="metadata4332">
    <rdf:RDF>
      <cc:Work
         rdf:about="">
        <dc:format>image/svg+xml</dc:format>
        <dc:type
           rdf:resource="http://purl.org/dc/dcmitype/StillImage" />
      </cc:Work>
    </rdf:RDF>
  </metadata>
  <defs
     id="defs4330" />
  <sodipodi:namedview
     pagecolor="#ffffff"
     bordercolor="#666666"
     borderopacity="1"
     objecttolerance="10"
     gridtolerance="10"
     guidetolerance="10"
     inkscape:pageopacity="0"
     inkscape:pageshadow="2"
     inkscape:window-width="1297"
     inkscape:window-height="744"
     id="namedview4328"
     showgrid="false"
     inkscape:zoom="0.7628672"
     inkscape:cx="463.71688"
     inkscape:cy="594.8013"
     inkscape:window-x="69"
     inkscape:window-y="24"
     inkscape:window-maximized="1"
     inkscape:current-layer="admin1" />
  <desc
     id="desc4283">
Map version: 1.1.2
Copyright (c) 2015 Highsoft AS, Based on data from Natural Earth
</desc>
  <title
     id="title4285">Nigeria</title>
  <g
     id="admin1">
    <g
       id="NG">
      <namespace:desc>
        <namespace:name>Nigeria</namespace:name>
        <namespace:labelrank>2</namespace:labelrank>
        <namespace:country-abbrev>Nigeria</namespace:country-abbrev>
        <namespace:subregion>Western Africa</namespace:subregion>
        <namespace:region-wb>Sub-Saharan Africa</namespace:region-wb>
        <namespace:iso-a3>NGA</namespace:iso-a3>
        <namespace:iso-a2>NG</namespace:iso-a2>
        <namespace:woe-id>23424908</namespace:woe-id>
        <namespace:continent>Africa</namespace:continent>
        <namespace:hc-key>ng</namespace:hc-key>
        <namespace:hc-a2>NI</namespace:hc-a2>
      </namespace:desc>
    </g>
    <path
       fill="#CEE3F5"
       stroke="#6E6E6E"
       stroke-width="0.4"
       id="NG.LA"
       d="M97.5,441.3 L84.8,438.9 L69.7,437.5 L44.5,438.5 L41.1,436.5 L50.3,435.9 L52.1,432.7 L62.2,430.6 L63.4,428.4 L69.1,427.4 L64.1,426.2 L57.6,429.2 L48.8,431.7 L46.6,430.8 L46.8,427.2 L42.1,430.1 L40.2,436.1 L41.0,439.2 L30.9,439.2 L23.1,440.0 L14.0,439.4 L0.8,440.5 L1.3,434.3 L8.6,434.8 L12.0,431.4 L24.9,432.1 L28.3,431.6 L33.0,421.7 L34.8,421.0 L40.2,424.6 L43.5,424.6 L44.9,422.2 L79.4,422.3 L82.9,423.3 L80.3,427.4 L82.6,431.0 L86.2,428.9 L89.8,429.1 L89.8,431.6 L86.5,434.9 L91.3,437.6 L97.7,438.0 Z">
      <namespace:desc>
        <namespace:labelrank>7</namespace:labelrank>
        <namespace:hasc>NG.LA</namespace:hasc>
        <namespace:alt-name>NULL</namespace:alt-name>
        <namespace:woe-id>2346342</namespace:woe-id>
        <namespace:subregion>NULL</namespace:subregion>
        <namespace:fips>NI05</namespace:fips>
        <namespace:postal-code>LA</namespace:postal-code>
        <namespace:name>Lagos</namespace:name>
        <namespace:country>Nigeria</namespace:country>
        <namespace:type-en>State</namespace:type-en>
        <namespace:region>South-West</namespace:region>
        <namespace:longitude>3.52478</namespace:longitude>
        <namespace:woe-name>Lagos</namespace:woe-name>
        <namespace:latitude>6.43313</namespace:latitude>
        <namespace:woe-label>Lagos, NG, Nigeria</namespace:woe-label>
        <namespace:type>State</namespace:type>
        <namespace:hc-middle-x>0.71</namespace:hc-middle-x>
        <namespace:hc-middle-y>0.48</namespace:hc-middle-y>
        <namespace:hc-key>ng-la</namespace:hc-key>
        <namespace:hc-a2>LA</namespace:hc-a2>
      </namespace:desc>
    </path>
    <path
       fill="#CEE3F5"
       stroke="#6E6E6E"
       stroke-width="0.4"
       id="NG.OG"
       d="M106.4,444.3 L101.2,442.1 L97.5,441.3 L97.7,438.0 L91.3,437.6 L86.5,434.9 L89.8,431.6 L89.8,429.1 L86.2,428.9 L82.6,431.0 L80.3,427.4 L82.9,423.3 L79.4,422.3 L44.9,422.2 L43.5,424.6 L40.2,424.6 L34.8,421.0 L33.0,421.7 L28.3,431.6 L24.9,432.1 L12.0,431.4 L8.6,434.8 L1.3,434.3 L2.9,429.3 L2.6,424.4 L5.4,421.1 L5.2,418.3 L2.2,415.0 L3.1,411.3 L1.9,404.4 L5.5,401.4 L3.2,397.1 L4.8,393.7 L3.7,379.1 L6.2,378.5 L6.8,375.0 L2.6,368.5 L3.2,356.3 L0.0,350.4 L5.5,346.6 L11.2,346.9 L12.7,349.7 L12.9,356.3 L15.5,359.8 L17.0,354.2 L19.3,354.2 L19.6,359.4 L17.3,365.3 L18.5,369.7 L22.8,374.2 L25.4,379.1 L29.5,382.9 L36.0,383.9 L38.4,381.9 L40.9,376.1 L43.3,374.5 L48.2,380.0 L51.7,378.3 L57.5,378.5 L59.5,381.4 L59.6,385.7 L63.0,388.0 L64.6,395.4 L60.7,401.1 L71.6,400.5 L82.3,397.4 L86.5,395.5 L88.1,400.7 L95.5,398.9 L99.1,405.4 L109.8,403.9 L110.7,405.0 L109.3,412.7 L99.9,421.1 L98.4,426.8 L100.0,428.9 L105.9,429.8 L110.9,426.2 L112.5,434.7 L107.7,438.7 L104.8,439.3 L110.9,441.9 L110.0,444.6 Z">
      <namespace:desc>
        <namespace:labelrank>3</namespace:labelrank>
        <namespace:hasc>NG.OG</namespace:hasc>
        <namespace:alt-name>NULL</namespace:alt-name>
        <namespace:woe-id>2346346</namespace:woe-id>
        <namespace:subregion>NULL</namespace:subregion>
        <namespace:fips>NI16</namespace:fips>
        <namespace:postal-code>OG</namespace:postal-code>
        <namespace:name>Ogun</namespace:name>
        <namespace:country>Nigeria</namespace:country>
        <namespace:type-en>State</namespace:type-en>
        <namespace:region>South-West</namespace:region>
        <namespace:longitude>3.29255</namespace:longitude>
        <namespace:woe-name>Ogun</namespace:woe-name>
        <namespace:latitude>7.01845</namespace:latitude>
        <namespace:woe-label>Ogun, NG, Nigeria</namespace:woe-label>
        <namespace:type>State</namespace:type>
        <namespace:hc-middle-x>0.39</namespace:hc-middle-x>
        <namespace:hc-middle-y>0.56</namespace:hc-middle-y>
        <namespace:hc-key>ng-og</namespace:hc-key>
        <namespace:hc-a2>OG</namespace:hc-a2>
      </namespace:desc>
    </path>
    <path
       fill="#CEE3F5"
       stroke="#6E6E6E"
       stroke-width="0.4"
       id="NG.ON"
       d="M136.3,472.0 L129.4,463.0 L125.9,460.9 L119.5,453.7 L106.4,444.3 L110.0,444.6 L110.9,441.9 L104.8,439.3 L107.7,438.7 L112.5,434.7 L110.9,426.2 L105.9,429.8 L100.0,428.9 L98.4,426.8 L99.9,421.1 L109.3,412.7 L110.7,405.0 L113.0,403.9 L116.0,398.4 L120.9,395.8 L126.7,399.0 L128.9,398.7 L129.1,390.1 L130.7,384.5 L136.2,382.5 L136.2,380.1 L140.4,378.8 L153.2,379.0 L156.2,380.0 L158.8,386.9 L162.1,388.2 L168.3,383.1 L171.6,375.6 L173.5,368.3 L180.4,361.8 L184.6,360.3 L189.3,359.5 L193.6,367.2 L197.2,371.2 L191.7,375.9 L192.9,379.1 L192.7,387.3 L188.2,391.4 L185.2,400.4 L182.8,403.0 L183.0,409.7 L180.9,412.0 L179.6,417.2 L176.8,420.2 L172.5,418.9 L168.3,421.4 L166.8,417.5 L168.4,414.4 L165.7,412.3 L149.2,412.1 L141.1,423.2 L140.7,427.8 L143.5,433.2 L139.8,440.9 L137.0,442.2 L135.0,446.7 L139.3,451.4 L141.9,452.5 L143.0,456.0 L136.3,471.9 Z">
      <namespace:desc>
        <namespace:labelrank>3</namespace:labelrank>
        <namespace:hasc>NG.ON</namespace:hasc>
        <namespace:alt-name>NULL</namespace:alt-name>
        <namespace:woe-id>2346347</namespace:woe-id>
        <namespace:subregion>NULL</namespace:subregion>
        <namespace:fips>NI48</namespace:fips>
        <namespace:postal-code>ON</namespace:postal-code>
        <namespace:name>Ondo</namespace:name>
        <namespace:country>Nigeria</namespace:country>
        <namespace:type-en>State</namespace:type-en>
        <namespace:region>South-West</namespace:region>
        <namespace:longitude>5.19165</namespace:longitude>
        <namespace:woe-name>Ondo</namespace:woe-name>
        <namespace:latitude>7.1444</namespace:latitude>
        <namespace:woe-label>Ondo, NG, Nigeria</namespace:woe-label>
        <namespace:type>State</namespace:type>
        <namespace:hc-middle-x>0.31</namespace:hc-middle-x>
        <namespace:hc-middle-y>0.46</namespace:hc-middle-y>
        <namespace:hc-key>ng-on</namespace:hc-key>
        <namespace:hc-a2>ON</namespace:hc-a2>
      </namespace:desc>
    </path>
    <path
       fill="#CEE3F5"
       stroke="#6E6E6E"
       stroke-width="0.4"
       id="NG.EK"
       d="M140.8,343.9 L143.0,345.8 L146.7,344.7 L150.5,347.2 L157.8,347.3 L158.9,344.1 L162.2,341.9 L168.5,341.8 L167.4,345.9 L174.4,344.7 L176.3,346.8 L173.2,349.7 L173.6,354.7 L175.6,356.5 L184.6,360.3 L180.4,361.8 L173.5,368.3 L171.6,375.6 L168.3,383.1 L162.1,388.2 L158.8,386.9 L156.2,380.0 L153.2,379.0 L140.4,378.8 L136.2,380.1 L131.7,367.5 L132.6,354.8 L139.4,348.6 Z">
      <namespace:desc>
        <namespace:labelrank>7</namespace:labelrank>
        <namespace:hasc>NG.EK</namespace:hasc>
        <namespace:alt-name>NULL</namespace:alt-name>
        <namespace:woe-id>20070151</namespace:woe-id>
        <namespace:subregion>NULL</namespace:subregion>
        <namespace:fips>NI51</namespace:fips>
        <namespace:postal-code>EK</namespace:postal-code>
        <namespace:name>Ekiti</namespace:name>
        <namespace:country>Nigeria</namespace:country>
        <namespace:type-en>State</namespace:type-en>
        <namespace:region>South-West</namespace:region>
        <namespace:longitude>5.35929</namespace:longitude>
        <namespace:woe-name>Ekiti</namespace:woe-name>
        <namespace:latitude>7.67104</namespace:latitude>
        <namespace:woe-label>Ekiti, NG, Nigeria</namespace:woe-label>
        <namespace:type>State</namespace:type>
        <namespace:hc-middle-x>0.45</namespace:hc-middle-x>
        <namespace:hc-middle-y>0.44</namespace:hc-middle-y>
        <namespace:hc-key>ng-ek</namespace:hc-key>
        <namespace:hc-a2>EK</namespace:hc-a2>
      </namespace:desc>
    </path>
    <path
       fill="#CEE3F5"
       stroke="#6E6E6E"
       stroke-width="0.4"
       id="NG.OS"
       d="M140.8,343.9 L139.4,348.6 L132.6,354.8 L131.7,367.5 L136.2,380.1 L136.2,382.5 L130.7,384.5 L129.1,390.1 L128.9,398.7 L126.7,399.0 L120.9,395.8 L116.0,398.4 L113.0,403.9 L110.7,405.0 L109.8,403.9 L99.1,405.4 L95.5,398.9 L88.1,400.7 L86.5,395.5 L82.3,397.4 L86.5,376.1 L82.9,369.6 L80.0,367.2 L83.2,354.1 L87.2,355.2 L93.7,347.9 L97.2,350.1 L99.3,353.6 L101.7,354.1 L111.2,347.4 L110.9,343.4 L118.6,343.7 L133.6,340.9 L136.6,344.1 Z">
      <namespace:desc>
        <namespace:labelrank>3</namespace:labelrank>
        <namespace:hasc>NG.OS</namespace:hasc>
        <namespace:alt-name>NULL</namespace:alt-name>
        <namespace:woe-id>2346370</namespace:woe-id>
        <namespace:subregion>NULL</namespace:subregion>
        <namespace:fips>NI42</namespace:fips>
        <namespace:postal-code>OS</namespace:postal-code>
        <namespace:name>Osun</namespace:name>
        <namespace:country>Nigeria</namespace:country>
        <namespace:type-en>State</namespace:type-en>
        <namespace:region>South-West</namespace:region>
        <namespace:longitude>4.54911</namespace:longitude>
        <namespace:woe-name>Osun</namespace:woe-name>
        <namespace:latitude>7.47613</namespace:latitude>
        <namespace:woe-label>Osun, NG, Nigeria</namespace:woe-label>
        <namespace:type>State</namespace:type>
        <namespace:hc-middle-x>0.52</namespace:hc-middle-x>
        <namespace:hc-middle-y>0.51</namespace:hc-middle-y>
        <namespace:hc-key>ng-os</namespace:hc-key>
        <namespace:hc-a2>OS</namespace:hc-a2>
      </namespace:desc>
    </path>
    <path
       fill="#CEE3F5"
       stroke="#6E6E6E"
       stroke-width="0.4"
       id="NG.OY"
       d="M110.9,343.4 L111.2,347.4 L101.7,354.1 L99.3,353.6 L97.2,350.1 L93.7,347.9 L87.2,355.2 L83.2,354.1 L80.0,367.2 L82.9,369.6 L86.5,376.1 L82.3,397.4 L71.6,400.5 L60.7,401.1 L64.6,395.4 L63.0,388.0 L59.6,385.7 L59.5,381.4 L57.5,378.5 L51.7,378.3 L48.2,380.0 L43.3,374.5 L40.9,376.1 L38.4,381.9 L36.0,383.9 L29.5,382.9 L25.4,379.1 L22.8,374.2 L18.5,369.7 L17.3,365.3 L19.6,359.4 L19.3,354.2 L17.0,354.2 L15.5,359.8 L12.9,356.3 L12.7,349.7 L11.2,346.9 L5.5,346.6 L0.0,350.4 L0.9,348.0 L2.4,335.9 L4.0,331.6 L1.9,325.1 L2.3,319.4 L4.7,313.0 L8.2,310.0 L15.2,309.1 L28.6,299.0 L34.4,300.4 L41.3,297.3 L48.9,292.4 L61.1,286.5 L63.6,284.3 L65.7,277.6 L68.4,275.7 L73.9,276.7 L76.8,281.5 L81.6,284.9 L88.6,287.4 L94.5,288.4 L97.4,286.7 L98.3,289.0 L90.6,297.1 L90.5,304.3 L95.6,315.9 L97.7,319.0 L99.6,326.9 L104.5,332.3 L108.3,341.3 Z">
      <namespace:desc>
        <namespace:labelrank>3</namespace:labelrank>
        <namespace:hasc>NG.OY</namespace:hasc>
        <namespace:alt-name>NULL</namespace:alt-name>
        <namespace:woe-id>2346360</namespace:woe-id>
        <namespace:subregion>NULL</namespace:subregion>
        <namespace:fips>NI32</namespace:fips>
        <namespace:postal-code>OY</namespace:postal-code>
        <namespace:name>Oyo</namespace:name>
        <namespace:country>Nigeria</namespace:country>
        <namespace:type-en>State</namespace:type-en>
        <namespace:region>South-West</namespace:region>
        <namespace:longitude>3.61681</namespace:longitude>
        <namespace:woe-name>Oyo</namespace:woe-name>
        <namespace:latitude>8.189690000000001</namespace:latitude>
        <namespace:woe-label>Oyo, NG, Nigeria</namespace:woe-label>
        <namespace:type>State</namespace:type>
        <namespace:hc-middle-x>0.49</namespace:hc-middle-x>
        <namespace:hc-middle-y>0.47</namespace:hc-middle-y>
        <namespace:hc-key>ng-oy</namespace:hc-key>
        <namespace:hc-a2>OY</namespace:hc-a2>
      </namespace:desc>
    </path>
  </g>
  <text
     x="350"
     y="714"
     text-anchor="middle"
     font-family="Verdana"
     font-size="8"
     stroke-opacity="0.6"
     id="text4326">Copyright (c) 2015 Highsoft AS, Based on data from Natural Earth</text>
</svg>
